<svg width="1540" height="664" viewBox="0 0 1540 664" fill="none" xmlns="http://www.w3.org/2000/svg">
<path opacity="0.2" fill-rule="evenodd" clip-rule="evenodd" d="M1500.45 151.565C1468.65 134.204 1411.49 112.11 1343.32 102.209C1275.15 92.3088 1195.93 94.5984 1120.02 126.042C1096.28 135.879 1079.81 147.954 1068.67 161.591C1057.54 175.231 1051.75 190.406 1049.33 206.406C1045.16 233.925 1050.92 263.934 1056.47 292.797C1057.37 297.452 1058.25 302.077 1059.1 306.657C1062.13 323.169 1064.53 339.101 1064.35 353.788C1064.17 368.471 1061.4 381.876 1054.12 393.353C1039.56 416.294 1006.79 431.756 939.695 434.005C838.722 437.389 769.522 407.807 710.894 382.743L710.893 382.743C691.642 374.513 673.531 366.771 655.808 360.843C619.965 348.853 585.732 344.31 546.988 358.307C508.269 372.295 465.107 404.776 411.335 466.676C357.635 528.494 312.82 546.85 272.844 541.236C232.809 535.613 197.447 505.938 162.691 471.213C154.295 462.825 145.936 454.143 137.557 445.441L137.557 445.441C111.296 418.166 84.8433 390.692 56.4929 371.458C37.7811 358.763 18.2108 349.632 -2.7178 346.505C-23.6536 343.377 -45.9168 346.263 -70 357.552L-69.5756 358.457C-45.6588 347.246 -23.5939 344.397 -2.86557 347.494C17.8699 350.592 37.2996 359.644 55.9315 372.285C84.1869 391.455 110.534 418.819 136.778 446.075C145.171 454.792 153.553 463.497 161.984 471.92C196.728 506.633 232.303 536.552 272.705 542.226C313.166 547.908 358.289 529.265 412.09 467.332C465.817 405.483 508.843 373.151 547.327 359.248C585.786 345.354 619.772 349.843 655.491 361.791C673.114 367.686 691.163 375.402 710.373 383.615C769.029 408.692 838.51 438.397 939.729 435.004C1006.89 432.753 1040.12 417.277 1054.96 393.889C1062.38 382.203 1065.17 368.596 1065.35 353.8C1065.53 339.009 1063.11 322.996 1060.08 306.476C1059.24 301.913 1058.36 297.311 1057.47 292.685L1057.45 292.583C1051.9 263.705 1046.17 233.89 1050.32 206.556C1052.72 190.704 1058.44 175.703 1069.45 162.224C1080.46 148.742 1096.77 136.755 1120.4 126.966C1196.1 95.61 1275.13 93.3162 1343.18 103.199C1411.23 113.082 1468.27 135.138 1499.97 152.443L1500.45 151.565ZM1363.32 142.209C1431.49 152.11 1488.65 174.204 1520.45 191.565L1519.97 192.443C1488.27 175.138 1431.23 153.082 1363.18 143.199C1295.13 133.316 1216.1 135.61 1140.4 166.966C1116.77 176.755 1100.46 188.742 1089.45 202.224C1078.44 215.703 1072.72 230.704 1070.32 246.556C1066.17 273.89 1071.9 303.705 1077.45 332.583L1077.47 332.685L1077.49 332.811C1078.37 337.395 1079.25 341.954 1080.08 346.476C1083.11 362.996 1085.53 379.009 1085.35 393.8C1085.17 408.596 1082.38 422.203 1074.96 433.889C1060.12 457.277 1026.89 472.753 959.729 475.004C858.51 478.397 789.029 448.692 730.373 423.615C711.163 415.402 693.114 407.686 675.491 401.791C639.772 389.843 605.786 385.354 567.327 399.248C528.843 413.151 485.817 445.483 432.09 507.332C378.289 569.265 333.166 587.908 292.705 582.226C252.303 576.552 216.728 546.633 181.984 511.92C173.553 503.497 165.171 494.792 156.778 486.075C130.534 458.819 104.187 431.455 75.9315 412.285C57.2996 399.644 37.8699 390.592 17.1344 387.494C-3.59387 384.397 -25.6588 387.246 -49.5756 398.457L-50 397.552C-25.9168 386.263 -3.65356 383.377 17.2822 386.505C38.2108 389.632 57.7811 398.763 76.4929 411.458C104.843 430.692 131.296 458.166 157.557 485.441L157.557 485.441C165.936 494.143 174.295 502.825 182.691 511.213C217.447 545.938 252.809 575.613 292.844 581.236C332.82 586.85 377.635 568.494 431.335 506.676C485.107 444.776 528.269 412.295 566.988 398.307C605.732 384.31 639.965 388.853 675.808 400.843C693.531 406.771 711.642 414.513 730.893 422.743L730.894 422.743C789.522 447.807 858.722 477.389 959.696 474.005C1026.79 471.756 1059.56 456.294 1074.12 433.353C1081.4 421.876 1084.17 408.471 1084.35 393.788C1084.53 379.101 1082.13 363.169 1079.1 346.657C1078.25 342.077 1077.37 337.452 1076.47 332.797C1070.92 303.934 1065.16 273.925 1069.33 246.406C1071.75 230.406 1077.54 215.231 1088.67 201.591C1099.81 187.954 1116.28 175.879 1140.02 166.042C1215.93 134.598 1295.15 132.309 1363.32 142.209ZM1540.45 231.565C1508.65 214.203 1451.49 192.11 1383.32 182.209C1315.15 172.309 1235.93 174.598 1160.02 206.042C1136.28 215.879 1119.81 227.954 1108.67 241.591C1097.54 255.231 1091.75 270.406 1089.33 286.406C1085.16 313.925 1090.92 343.934 1096.47 372.797C1097.37 377.452 1098.25 382.077 1099.1 386.657C1102.13 403.169 1104.53 419.101 1104.35 433.788C1104.17 448.471 1101.4 461.876 1094.12 473.353C1079.56 496.294 1046.79 511.756 979.696 514.005C878.722 517.389 809.522 487.807 750.894 462.743L750.893 462.743C731.642 454.513 713.531 446.771 695.808 440.843C659.965 428.853 625.732 424.31 586.988 438.307C548.269 452.295 505.107 484.776 451.335 546.676C397.635 608.494 352.82 626.85 312.844 621.236C272.809 615.613 237.447 585.938 202.691 551.213C194.295 542.825 185.936 534.143 177.557 525.441C151.296 498.166 124.843 470.692 96.4929 451.458C77.7811 438.763 58.2108 429.632 37.2822 426.505C16.3464 423.377 -5.9168 426.263 -30 437.552L-29.5756 438.457C-5.65876 427.246 16.4061 424.397 37.1344 427.494C57.8699 430.592 77.2996 439.644 95.9315 452.285C124.187 471.455 150.534 498.819 176.778 526.075C185.171 534.792 193.553 543.497 201.984 551.92C236.728 586.633 272.303 616.552 312.705 622.226C353.166 627.908 398.289 609.265 452.09 547.332C505.817 485.483 548.843 453.151 587.327 439.248C625.786 425.354 659.772 429.843 695.491 441.791C713.114 447.686 731.163 455.402 750.373 463.615C809.029 488.692 878.51 518.397 979.729 515.004C1046.89 512.753 1080.12 497.277 1094.96 473.889C1102.38 462.203 1105.17 448.596 1105.35 433.8C1105.53 419.009 1103.11 402.996 1100.08 386.476C1099.24 381.913 1098.36 377.31 1097.47 372.684L1097.45 372.583C1091.9 343.705 1086.17 313.89 1090.32 286.556C1092.72 270.704 1098.44 255.703 1109.45 242.224C1120.46 228.742 1136.77 216.755 1160.4 206.966C1236.1 175.61 1315.13 173.316 1383.18 183.199C1451.23 193.082 1508.27 215.138 1539.97 232.443L1540.45 231.565ZM1560.45 271.565C1528.65 254.203 1471.49 232.11 1403.32 222.209C1335.15 212.309 1255.93 214.598 1180.02 246.042C1156.28 255.879 1139.81 267.954 1128.67 281.591C1117.54 295.231 1111.75 310.406 1109.33 326.406C1105.16 353.925 1110.92 383.934 1116.47 412.797C1117.37 417.452 1118.25 422.077 1119.1 426.657C1122.13 443.169 1124.53 459.101 1124.35 473.788C1124.17 488.471 1121.4 501.876 1114.12 513.353C1099.56 536.294 1066.79 551.756 999.696 554.005C898.722 557.389 829.522 527.807 770.894 502.743L770.893 502.743C751.642 494.513 733.531 486.771 715.808 480.843C679.965 468.853 645.732 464.31 606.988 478.307C568.269 492.295 525.107 524.776 471.335 586.676C417.635 648.494 372.82 666.85 332.844 661.236C292.809 655.613 257.447 625.938 222.691 591.213C214.299 582.829 205.943 574.15 197.567 565.451L197.559 565.442L197.557 565.441C171.296 538.166 144.843 510.692 116.493 491.458C97.7811 478.763 78.2108 469.632 57.2822 466.505C36.3464 463.377 14.0832 466.263 -10 477.552L-9.57557 478.457C14.3412 467.246 36.4061 464.397 57.1344 467.494C77.8699 470.592 97.2996 479.644 115.932 492.285C144.187 511.455 170.534 538.819 196.778 566.075C205.171 574.792 213.553 583.497 221.984 591.92C256.728 626.633 292.303 656.552 332.705 662.226C373.166 667.908 418.289 649.265 472.09 587.332C525.817 525.483 568.843 493.151 607.327 479.248C645.786 465.354 679.772 469.843 715.491 481.791C733.114 487.686 751.163 495.402 770.373 503.615C829.029 528.692 898.51 558.397 999.729 555.004C1066.89 552.753 1100.12 537.277 1114.96 513.889C1122.38 502.203 1125.17 488.596 1125.35 473.8C1125.53 459.009 1123.11 442.996 1120.08 426.476C1119.24 421.913 1118.36 417.31 1117.47 412.684L1117.45 412.583C1111.9 383.705 1106.17 353.89 1110.32 326.556C1112.72 310.704 1118.44 295.703 1129.45 282.224C1140.46 268.742 1156.77 256.755 1180.4 246.966C1256.1 215.61 1335.13 213.316 1403.18 223.199C1471.23 233.082 1528.27 255.138 1559.97 272.443L1560.45 271.565Z" fill="url(#paint0_linear_35_900)"/>
<path opacity="0.2" fill-rule="evenodd" clip-rule="evenodd" d="M1497.39 516.811C1465.26 534.349 1407.53 556.667 1338.66 566.667C1269.8 576.668 1189.77 574.355 1113.1 542.593C1089.11 532.657 1072.48 520.459 1061.23 506.684C1049.98 492.907 1044.14 477.579 1041.69 461.418C1037.48 433.62 1043.3 403.307 1048.91 374.151L1048.91 374.136C1049.81 369.439 1050.71 364.772 1051.56 360.151C1054.62 343.471 1057.05 327.377 1056.87 312.54C1056.68 297.708 1053.89 284.166 1046.53 272.571C1031.82 249.395 998.716 233.776 930.941 231.505C828.941 228.086 759.038 257.969 699.815 283.287C680.368 291.6 662.073 299.421 644.171 305.409C607.965 317.52 573.386 322.109 534.249 307.97C495.138 293.841 451.539 261.032 397.222 198.503C342.976 136.058 297.705 117.513 257.321 123.185C216.878 128.865 181.155 158.843 146.047 193.92C137.566 202.393 129.121 211.163 120.657 219.954C94.1299 247.506 67.4093 275.258 38.7718 294.687C19.8704 307.511 0.102226 316.734 -21.0378 319.892C-42.185 323.052 -64.6732 320.137 -89 308.734L-88.5756 307.829C-64.4152 319.154 -42.1253 322.032 -21.1856 318.903C-0.238739 315.774 19.3889 306.629 38.2103 293.86C66.7529 274.495 93.3685 246.852 119.879 219.32C128.357 210.515 136.824 201.721 145.34 193.212C180.436 158.147 216.371 127.926 257.182 122.195C298.051 116.455 343.631 135.286 397.977 197.847C452.25 260.324 495.713 292.985 534.589 307.03C573.439 321.065 607.772 316.53 643.854 304.461C661.656 298.506 679.888 290.711 699.293 282.415L699.294 282.415C758.545 257.084 828.729 227.078 930.975 230.505C998.812 232.779 1032.38 248.412 1047.37 272.035C1054.87 283.838 1057.68 297.582 1057.87 312.528C1058.05 327.469 1055.6 343.644 1052.54 360.331C1051.69 364.963 1050.79 369.633 1049.89 374.329L1049.88 374.366C1044.28 403.536 1038.49 433.655 1042.68 461.268C1045.11 477.281 1050.89 492.435 1062.01 506.052C1073.13 519.672 1089.61 531.781 1113.48 541.669C1189.94 573.344 1269.78 575.661 1338.52 565.678C1407.26 555.694 1464.89 533.414 1496.91 515.933L1497.39 516.811ZM1358.87 526.261C1427.73 516.261 1485.46 493.943 1517.59 476.405L1517.11 475.527C1485.09 493.008 1427.47 515.288 1358.72 525.272C1289.98 535.255 1210.15 532.938 1133.68 501.263C1109.81 491.375 1093.33 479.266 1082.21 465.646C1071.09 452.029 1065.31 436.875 1062.88 420.862C1058.7 393.249 1064.48 363.13 1070.09 333.96L1070.09 333.923C1071 329.227 1071.89 324.557 1072.74 319.925C1075.81 303.238 1078.25 287.063 1078.07 272.122C1077.89 257.176 1075.07 243.432 1067.58 231.629C1052.58 208.006 1019.02 192.373 951.178 190.099C848.932 186.672 778.748 216.678 719.497 242.009L719.496 242.009C700.091 250.305 681.859 258.1 664.057 264.055C627.975 276.124 593.642 280.659 554.792 266.624C515.916 252.579 472.453 219.918 418.18 157.441C363.834 94.8803 318.254 76.049 277.385 81.7889C236.574 87.5204 200.639 117.741 165.543 152.806C157.027 161.315 148.56 170.109 140.082 178.914C113.571 206.447 86.9559 234.089 58.4133 253.454C39.5919 266.223 19.9642 275.368 -0.982613 278.497C-21.9223 281.626 -44.2122 278.748 -68.3726 267.423L-68.797 268.328C-44.4702 279.731 -21.982 282.646 -0.834854 279.486C20.3052 276.328 40.0734 267.105 58.9747 254.281C87.6123 234.852 114.333 207.1 140.86 179.548C149.324 170.757 157.769 161.987 166.25 153.514C201.358 118.437 237.081 88.4591 277.524 82.7791C317.908 77.1075 363.179 95.6517 417.425 158.097C471.742 220.626 515.341 253.435 554.452 267.564C593.589 281.703 628.168 277.114 664.374 265.003C682.276 259.015 700.571 251.194 720.018 242.881C779.241 217.563 849.144 187.68 951.144 191.099C1018.92 193.37 1052.02 208.989 1066.73 232.165C1074.09 243.76 1076.89 257.302 1077.07 272.134C1077.25 286.971 1074.82 303.065 1071.76 319.745C1070.91 324.361 1070.02 329.023 1069.12 333.715L1069.11 333.729L1069.11 333.745C1063.51 362.901 1057.68 393.214 1061.89 421.012C1064.34 437.173 1070.19 452.501 1081.44 466.279C1092.68 480.053 1109.32 492.251 1133.3 502.187C1209.98 533.949 1290 536.262 1358.87 526.261ZM1537.79 435.999C1505.67 453.537 1447.93 475.855 1379.07 485.855C1310.2 495.856 1230.18 493.543 1153.5 461.781C1129.52 451.845 1112.89 439.647 1101.64 425.873C1090.39 412.095 1084.55 396.767 1082.1 380.606C1077.88 352.808 1083.71 322.495 1089.31 293.339L1089.32 293.323L1089.32 293.309C1090.22 288.617 1091.12 283.955 1091.96 279.339C1095.03 262.659 1097.46 246.565 1097.27 231.728C1097.09 216.896 1094.3 203.354 1086.94 191.759C1072.22 168.583 1039.12 152.964 971.347 150.693C869.347 147.274 799.444 177.157 740.221 202.475C720.774 210.788 702.479 218.609 684.577 224.597C648.37 236.708 613.792 241.297 574.655 227.158C535.544 213.029 491.945 180.22 437.628 117.691C383.382 55.2457 338.111 36.7015 297.727 42.3732C257.284 48.0532 221.561 78.0307 186.453 113.108C177.972 121.581 169.527 130.351 161.063 139.142C134.536 166.694 107.815 194.446 79.1777 213.875C60.2764 226.699 40.5082 235.922 19.3681 239.08C-1.77905 242.24 -24.2672 239.325 -48.594 227.922L-48.1696 227.017C-24.0092 238.342 -1.71936 241.22 19.2204 238.091C40.1672 234.962 59.7949 225.817 78.6163 213.048C107.159 193.683 133.774 166.041 160.285 138.508L160.285 138.507C168.763 129.702 177.23 120.909 185.746 112.401C220.842 77.3354 256.777 47.1144 297.588 41.3829C338.457 35.6431 384.037 54.4743 438.383 117.035C492.656 179.512 536.119 212.173 574.995 226.218C613.845 240.253 648.177 235.718 684.26 223.649C702.062 217.694 720.294 209.9 739.699 201.603L739.7 201.603C798.951 176.272 869.135 146.266 971.381 149.693C1039.22 151.967 1072.79 167.6 1087.78 191.223C1095.27 203.026 1098.09 216.771 1098.27 231.716C1098.46 246.657 1096.01 262.832 1092.95 279.519C1092.1 284.151 1091.2 288.822 1090.3 293.517L1090.29 293.554C1084.69 322.724 1078.9 352.843 1083.09 380.456C1085.51 396.469 1091.29 411.623 1102.41 425.24C1113.53 438.86 1130.02 450.969 1153.89 460.857C1230.35 492.532 1310.18 494.849 1378.93 484.866C1447.67 474.882 1505.29 452.602 1537.31 435.121L1537.79 435.999ZM1558 395.593C1525.87 413.131 1468.13 435.449 1399.27 445.449C1330.41 455.45 1250.38 453.137 1173.71 421.375C1149.72 411.439 1133.09 399.241 1121.84 385.467C1110.59 371.689 1104.75 356.361 1102.3 340.2C1098.09 312.402 1103.91 282.089 1109.52 252.933L1109.52 252.919L1109.52 252.907L1109.52 252.89C1110.43 248.203 1111.32 243.545 1112.17 238.933C1115.23 222.253 1117.66 206.159 1117.48 191.322C1117.29 176.49 1114.5 162.948 1107.14 151.353C1092.43 128.177 1059.32 112.558 991.55 110.287C889.55 106.868 819.647 136.751 760.424 162.069C740.977 170.382 722.682 178.203 704.78 184.191C668.573 196.302 633.995 200.891 594.858 186.752C555.747 172.623 512.148 139.814 457.831 77.2849C403.585 14.8397 358.314 -3.70447 317.93 1.96716C277.487 7.64722 241.764 37.6248 206.655 72.7019C198.175 81.175 189.73 89.9455 181.266 98.7363C154.739 126.288 128.018 154.04 99.3807 173.469C80.4794 186.293 60.7112 195.516 39.5711 198.674C18.4239 201.834 -4.06425 198.919 -28.391 187.516L-27.9666 186.611C-3.80621 197.936 18.4836 200.814 39.4234 197.685C60.3702 194.556 79.9979 185.411 98.8193 172.642C127.362 153.277 153.977 125.635 180.488 98.1017C188.966 89.2967 197.433 80.5028 205.949 71.9945C241.045 36.9294 276.98 6.7085 317.791 0.976929C358.66 -4.76294 404.24 14.0684 458.586 76.6292C512.859 139.106 556.322 171.767 595.198 185.812C634.048 199.847 668.38 195.312 704.463 183.243C722.265 177.288 740.497 169.494 759.902 161.197L759.903 161.197C819.154 135.866 889.338 105.86 991.584 109.287C1059.42 111.561 1092.99 127.194 1107.98 150.817C1115.47 162.62 1118.29 176.365 1118.48 191.31C1118.66 206.251 1116.21 222.426 1113.15 239.113C1112.3 243.745 1111.4 248.416 1110.5 253.111L1110.49 253.148C1104.89 282.318 1099.1 312.437 1103.29 340.05C1105.72 356.063 1111.5 371.217 1122.62 384.834C1133.74 398.454 1150.22 410.563 1174.09 420.451C1250.55 452.126 1330.39 454.443 1399.13 444.46C1467.87 434.476 1525.5 412.196 1557.52 394.715L1558 395.593Z" fill="url(#paint1_linear_35_900)"/>
<defs>
<linearGradient id="paint0_linear_35_900" x1="117.5" y1="519.5" x2="1546.5" y2="519.5" gradientUnits="userSpaceOnUse">
<stop offset="0.341667" stop-color="#4535AF" stop-opacity="0.7"/>
<stop offset="0.511553" stop-color="#F8EFF4" stop-opacity="0.1"/>
<stop offset="0.851637" stop-color="#4535AF" stop-opacity="0.8"/>
</linearGradient>
<linearGradient id="paint1_linear_35_900" x1="100.402" y1="145.149" x2="1543.9" y2="145.149" gradientUnits="userSpaceOnUse">
<stop offset="0.310417" stop-color="#4535AF" stop-opacity="0.7"/>
<stop offset="0.461458" stop-color="#F8EFF4" stop-opacity="0.1"/>
<stop offset="0.851637" stop-color="#4535AF" stop-opacity="0.8"/>
</linearGradient>
</defs>
</svg>
