<svg width="1445" height="572" viewBox="0 0 1445 572" fill="none" xmlns="http://www.w3.org/2000/svg">
<path opacity="0.2" fill-rule="evenodd" clip-rule="evenodd" d="M1384.39 516.811C1352.26 534.349 1294.53 556.667 1225.66 566.667C1156.8 576.668 1076.77 574.355 1000.1 542.593C976.112 532.657 959.481 520.459 948.233 506.684C936.983 492.907 931.14 477.579 928.691 461.418C924.477 433.62 930.303 403.307 935.907 374.151L935.91 374.136C936.813 369.439 937.71 364.772 938.558 360.151C941.619 343.471 944.05 327.377 943.867 312.54C943.684 297.708 940.889 284.166 933.529 272.571C918.819 249.395 885.716 233.776 817.941 231.505C715.941 228.086 646.038 257.969 586.815 283.287C567.368 291.6 549.073 299.421 531.171 305.409C494.965 317.52 460.386 322.109 421.249 307.97C382.138 293.841 338.539 261.032 284.222 198.503C229.976 136.058 184.705 117.513 144.321 123.185C103.878 128.865 68.1553 158.843 33.0465 193.92C24.5658 202.393 16.1214 211.163 7.65729 219.954C-18.8701 247.506 -45.5907 275.258 -74.2282 294.687C-93.1296 307.511 -112.898 316.734 -134.038 319.892C-155.185 323.052 -177.673 320.137 -202 308.734L-201.576 307.829C-177.415 319.154 -155.125 322.032 -134.186 318.903C-113.239 315.774 -93.6111 306.629 -74.7897 293.86C-46.2471 274.495 -19.6315 246.852 6.87865 219.32C15.3566 210.515 23.8238 201.721 32.3398 193.212C67.4364 158.147 103.371 127.926 144.182 122.195C185.051 116.455 230.631 135.286 284.977 197.847C339.25 260.324 382.713 292.985 421.589 307.03C460.439 321.065 494.772 316.53 530.854 304.461C548.656 298.506 566.888 290.711 586.293 282.415L586.294 282.415C645.545 257.084 715.729 227.078 817.975 230.505C885.812 232.779 919.38 248.412 934.374 272.035C941.866 283.838 944.682 297.582 944.867 312.528C945.051 327.469 942.604 343.644 939.541 360.331C938.691 364.963 937.794 369.633 936.892 374.329L936.885 374.366C931.28 403.536 925.494 433.655 929.679 461.268C932.107 477.281 937.888 492.435 949.008 506.052C960.129 519.672 976.612 531.781 1000.48 541.669C1076.94 573.344 1156.78 575.661 1225.52 565.678C1294.26 555.694 1351.89 533.414 1383.91 515.933L1384.39 516.811ZM1245.87 526.261C1314.73 516.261 1372.46 493.943 1404.59 476.405L1404.11 475.527C1372.09 493.008 1314.47 515.288 1245.72 525.272C1176.98 535.255 1097.15 532.938 1020.68 501.263C996.815 491.375 980.332 479.266 969.211 465.646C958.091 452.029 952.31 436.875 949.882 420.862C945.697 393.249 951.483 363.13 957.088 333.96L957.095 333.923C957.997 329.227 958.894 324.557 959.744 319.925C962.807 303.238 965.254 287.063 965.07 272.122C964.885 257.176 962.069 243.432 954.577 231.629C939.583 208.006 906.016 192.373 838.178 190.099C735.932 186.672 665.748 216.678 606.497 242.009L606.496 242.009C587.091 250.305 568.859 258.1 551.057 264.055C514.975 276.124 480.642 280.659 441.792 266.624C402.916 252.579 359.453 219.918 305.18 157.441C250.834 94.8803 205.254 76.049 164.385 81.7889C123.574 87.5204 87.6393 117.741 52.5427 152.806C44.0268 161.315 35.5596 170.109 27.0816 178.914C0.571472 206.447 -26.0441 234.089 -54.5867 253.454C-73.4081 266.223 -93.0358 275.368 -113.983 278.497C-134.922 281.626 -157.212 278.748 -181.373 267.423L-181.797 268.328C-157.47 279.731 -134.982 282.646 -113.835 279.486C-92.6948 276.328 -72.9266 267.105 -54.0253 254.281C-25.3877 234.852 1.33289 207.1 27.8603 179.548C36.3244 170.757 44.7688 161.987 53.2495 153.514C88.3583 118.437 124.081 88.4591 164.524 82.7791C204.908 77.1075 250.179 95.6517 304.425 158.097C358.742 220.626 402.341 253.435 441.452 267.564C480.589 281.703 515.168 277.114 551.374 265.003C569.276 259.015 587.571 251.194 607.018 242.881C666.241 217.563 736.144 187.68 838.144 191.099C905.919 193.37 939.022 208.989 953.732 232.165C961.092 243.76 963.887 257.302 964.07 272.134C964.253 286.971 961.822 303.065 958.761 319.745C957.913 324.361 957.017 329.023 956.116 333.715L956.113 333.729L956.11 333.745C950.506 362.901 944.68 393.214 948.894 421.012C951.343 437.173 957.186 452.501 968.436 466.279C979.684 480.053 996.315 492.251 1020.3 502.187C1096.98 533.949 1177 536.262 1245.87 526.261ZM1424.79 435.999C1392.67 453.537 1334.93 475.855 1266.07 485.855C1197.2 495.856 1117.18 493.543 1040.5 461.781C1016.52 451.845 999.887 439.647 988.639 425.873C977.389 412.095 971.546 396.767 969.097 380.606C964.883 352.808 970.709 322.495 976.313 293.339L976.316 293.323L976.319 293.309C977.22 288.617 978.117 283.955 978.964 279.339C982.025 262.659 984.456 246.565 984.273 231.728C984.09 216.896 981.295 203.354 973.935 191.759C959.225 168.583 926.122 152.964 858.347 150.693C756.347 147.274 686.444 177.157 627.221 202.475C607.774 210.788 589.479 218.609 571.577 224.597C535.37 236.708 500.792 241.297 461.655 227.158C422.544 213.029 378.945 180.22 324.628 117.691C270.382 55.2457 225.111 36.7015 184.727 42.3732C144.284 48.0532 108.561 78.0307 73.4525 113.108C64.9717 121.581 56.5273 130.351 48.0633 139.142C21.5359 166.694 -5.18468 194.446 -33.8223 213.875C-52.7236 226.699 -72.4918 235.922 -93.6319 239.08C-114.779 242.24 -137.267 239.325 -161.594 227.922L-161.17 227.017C-137.009 238.342 -114.719 241.22 -93.7796 238.091C-72.8328 234.962 -53.2051 225.817 -34.3837 213.048C-5.84109 193.683 20.7745 166.041 47.2846 138.508L47.2849 138.507C55.7628 129.702 64.2299 120.909 72.7457 112.401C107.842 77.3354 143.777 47.1144 184.588 41.3829C225.457 35.6431 271.037 54.4743 325.383 117.035C379.656 179.512 423.119 212.173 461.995 226.218C500.845 240.253 535.177 235.718 571.26 223.649C589.062 217.694 607.294 209.9 626.699 201.603L626.7 201.603C685.951 176.272 756.135 146.266 858.381 149.693C926.219 151.967 959.786 167.6 974.78 191.223C982.272 203.026 985.089 216.771 985.273 231.716C985.457 246.657 983.01 262.832 979.947 279.519C979.097 284.151 978.2 288.822 977.298 293.517L977.291 293.554C971.686 322.724 965.9 352.843 970.085 380.456C972.513 396.469 978.294 411.623 989.414 425.24C1000.53 438.86 1017.02 450.969 1040.89 460.857C1117.35 492.532 1197.18 494.849 1265.93 484.866C1334.67 474.882 1392.29 452.602 1424.31 435.121L1424.79 435.999ZM1445 395.593C1412.87 413.131 1355.13 435.449 1286.27 445.449C1217.41 455.45 1137.38 453.137 1060.71 421.375C1036.72 411.439 1020.09 399.241 1008.84 385.467C997.592 371.689 991.749 356.361 989.3 340.2C985.086 312.402 990.912 282.089 996.516 252.933L996.519 252.919L996.521 252.907L996.524 252.89C997.425 248.203 998.32 243.545 999.167 238.933C1002.23 222.253 1004.66 206.159 1004.48 191.322C1004.29 176.49 1001.5 162.948 994.138 151.353C979.428 128.177 946.325 112.558 878.55 110.287C776.55 106.868 706.647 136.751 647.424 162.069C627.977 170.382 609.682 178.203 591.78 184.191C555.573 196.302 520.995 200.891 481.858 186.752C442.747 172.623 399.148 139.814 344.831 77.2849C290.585 14.8397 245.314 -3.70447 204.93 1.96716C164.487 7.64722 128.764 37.6248 93.6555 72.7019C85.1747 81.175 76.7303 89.9455 68.2662 98.7363C41.7389 126.288 15.0183 154.04 -13.6193 173.469C-32.5206 186.293 -52.2888 195.516 -73.4289 198.674C-94.5761 201.834 -117.064 198.919 -141.391 187.516L-140.967 186.611C-116.806 197.936 -94.5164 200.814 -73.5766 197.685C-52.6298 194.556 -33.0021 185.411 -14.1807 172.642C14.3619 153.277 40.9774 125.635 67.4876 98.1017C75.9655 89.2967 84.4327 80.5028 92.9487 71.9945C128.045 36.9294 163.98 6.7085 204.791 0.976929C245.66 -4.76294 291.24 14.0684 345.586 76.6292C399.859 139.106 443.322 171.767 482.198 185.812C521.048 199.847 555.38 195.312 591.463 183.243C609.265 177.288 627.497 169.494 646.902 161.197L646.903 161.197C706.154 135.866 776.338 105.86 878.584 109.287C946.422 111.561 979.989 127.194 994.983 150.817C1002.47 162.62 1005.29 176.365 1005.48 191.31C1005.66 206.251 1003.21 222.426 1000.15 239.113C999.3 243.745 998.403 248.416 997.501 253.111L997.494 253.148C991.889 282.318 986.103 312.437 990.288 340.05C992.716 356.063 998.497 371.217 1009.62 384.834C1020.74 398.454 1037.22 410.563 1061.09 420.451C1137.55 452.126 1217.39 454.443 1286.13 444.46C1354.87 434.476 1412.5 412.196 1444.52 394.715L1445 395.593Z" fill="url(#paint0_linear_35_789)"/>
<defs>
<linearGradient id="paint0_linear_35_789" x1="-12.5976" y1="145.149" x2="1430.9" y2="145.149" gradientUnits="userSpaceOnUse">
<stop offset="0.310417" stop-color="#4535AF" stop-opacity="0.7"/>
<stop offset="0.461458" stop-color="#F8EFF4" stop-opacity="0.1"/>
<stop offset="0.851637" stop-color="#4535AF" stop-opacity="0.8"/>
</linearGradient>
</defs>
</svg>
