<svg width="1172" height="845" viewBox="0 0 1172 845" fill="none" xmlns="http://www.w3.org/2000/svg">
<rect y="31" width="1172" height="814" rx="20" fill="#F3F7FA"/>
<path fill-rule="evenodd" clip-rule="evenodd" d="M90.2596 23.9401C94.4505 15.5526 99.5878 7.77718 105.017 0.209725C105.638 0.369192 105.093 0.755642 105.314 0.999606C105.665 1.16197 106.057 0.314518 106.509 1.06836C106.925 1.76091 106.679 2.28156 106.386 2.81878C104.844 5.64653 102.619 8.03481 101.275 11.0171C100.815 12.0368 100.615 13.2856 99.4809 14.0801C98.783 14.5688 98.9474 15.8048 98.3307 16.6187C97.9447 17.1286 97.7301 17.8419 97.3006 18.4172C95.5891 20.7077 94.6029 23.2985 94.3217 26.1462C94.2711 26.659 94.0574 27.1233 93.5819 27.139C92.2854 27.1825 90.9977 27.7197 89.7269 26.5852C88.8045 25.7614 88.7188 25.0154 88.9797 24.0222C89.6089 21.6293 90.8569 19.5177 92.0817 17.4078C93.5144 14.94 95.1414 12.5885 96.659 10.1754C98.7002 6.92972 100.985 3.86464 103.153 0.713808C103.359 0.41434 103.557 -0.204891 104.009 0.0676538C104.349 0.272683 103.991 0.763098 103.797 1.06132C102.571 2.9418 101.26 4.75848 99.9159 6.55943C98.6281 8.28541 97.5487 10.1762 96.4734 12.0493C94.7359 15.0771 92.8214 18.0034 91.2491 21.1256C90.8009 22.0158 90.3573 22.9175 90.2596 23.9401Z" fill="black"/>
<path fill-rule="evenodd" clip-rule="evenodd" d="M83.6356 60.1374C82.8482 60.7703 82.2787 59.7854 82.0298 59.5853C81.3563 59.0444 80.3005 59.6023 80.0375 58.9619C79.6394 57.9923 78.7808 57.1717 79.137 55.8728C79.8254 53.3603 80.8688 50.9952 81.8388 48.5965C82.5421 46.8577 83.2123 45.1019 84.2395 43.5122C84.6976 42.8035 85.2241 42.1785 86.0016 41.8223C86.7989 41.4565 87.4989 41.4304 88.2668 42.0878C88.8351 42.5741 89.5678 42.8934 90.0939 43.465C90.5946 44.0084 90.9923 44.5771 90.4016 45.3177C89.987 45.8371 90.062 46.5181 89.8532 47.1104C89.014 49.4904 88.6947 52.0535 87.3485 54.2541C86.3503 55.8865 85.6126 57.6431 84.843 59.3861C84.6227 59.8852 84.4094 60.4883 83.6356 60.1374Z" fill="black"/>
<path fill-rule="evenodd" clip-rule="evenodd" d="M133.278 42.313C133.093 42.7305 132.974 42.9989 132.859 43.2582C132.996 43.4368 133.122 43.3303 133.258 43.2922C133.536 43.2135 133.632 42.6796 133.97 42.8929C134.378 43.151 133.853 43.4599 133.884 43.7656C134.331 43.8696 134.45 43.3175 134.815 43.3021C135.38 44.1711 135.083 44.8707 134.557 45.6502C133.128 47.7685 131.889 49.9948 131.055 52.4311C130.74 53.3511 129.561 53.8005 129.539 54.8683C129.51 56.2227 128.878 57.3986 128.167 58.3671C126.94 60.0396 126.678 62.0075 125.948 63.8254C125.742 64.3369 126.024 64.9669 125.519 65.3861C125.356 65.5215 125.099 65.8301 124.993 65.57C124.627 64.6811 123.915 65.1094 123.326 64.962C122.232 64.6882 122.017 63.6154 121.91 62.6718C121.742 61.1849 122.171 59.7468 122.774 58.4213C125.084 53.3461 127.77 48.4772 131.093 43.986C131.599 43.3017 132.053 42.4431 133.278 42.313Z" fill="black"/>
<path fill-rule="evenodd" clip-rule="evenodd" d="M117.975 22.1608C117.721 22.9507 117.477 23.7774 117.192 24.5905C115.387 29.7448 113.046 34.6576 110.51 39.4856C109.538 41.3362 108.418 43.1123 107.682 45.0872C107.471 45.653 107.093 46.0995 106.419 45.4977C106.26 45.3556 106.023 45.2914 105.813 45.2169C104.413 44.7215 103.867 43.6487 104.306 42.1928C104.756 40.6992 105.588 39.3911 106.394 38.0798C109.806 32.5332 113.016 26.8823 115.466 20.8299C115.777 20.0628 115.867 20.0637 116.411 20.6477C116.47 20.7111 116.591 20.757 116.677 20.7492C117.693 20.6585 117.785 21.4032 117.975 22.1608Z" fill="black"/>
<path fill-rule="evenodd" clip-rule="evenodd" d="M83.7602 80.0504C82.8299 82.3397 81.3089 84.0918 80.4226 86.1649C79.5266 88.2603 78.4418 90.2804 77.8794 92.5171C78.6949 90.724 79.5059 88.9284 80.3269 87.1374C81.2696 85.0826 82.465 83.1735 83.6401 81.2467C84.2299 80.2799 84.8922 80.3292 85.5562 80.8615C86.2044 81.3817 86.339 82.2577 85.7285 82.8683C84.4846 84.1121 83.785 85.7014 83.3307 87.2625C82.5395 89.9813 81.1486 92.5013 80.7295 95.3407C80.633 95.9951 80.1595 96.553 80.0622 97.282C79.9528 98.1022 79.9102 98.8046 80.3169 99.5688C80.5526 100.013 81.1341 100.597 80.6176 101.092C80.1952 101.498 79.5763 101.795 78.8722 101.426C78.6034 101.285 78.2115 101.377 77.8756 101.366C75.9115 101.299 74.7521 100.019 75.045 98.0384C75.4376 95.3817 76.4354 92.8969 77.4892 90.4432C78.8697 87.2277 80.3708 84.0744 82.414 81.2106C82.7156 80.7881 82.9682 80.3213 83.7602 80.0504Z" fill="black"/>
<path fill-rule="evenodd" clip-rule="evenodd" d="M137.314 105.105C134.654 105.099 133.852 103.935 134.752 101.729C135.456 100.004 136.653 98.5827 137.809 97.1587C140.506 93.8352 143.314 90.6069 146.304 87.5356C147.035 86.7842 147.922 86.5154 148.833 86.2366C149.152 86.1397 149.861 85.9484 149.834 86.2255C149.777 86.7921 150.346 87.3069 149.834 87.9133C147.548 90.621 145.507 93.5195 143.393 96.361C142.461 97.6139 141.43 98.7952 140.532 100.071C139.926 100.935 139.305 101.867 139.921 103.03C139.994 103.168 139.956 103.532 139.891 103.554C138.84 103.904 138.205 105.023 137.314 105.105Z" fill="black"/>
<path fill-rule="evenodd" clip-rule="evenodd" d="M164.505 44.8725C165.871 43.3378 166.721 41.4714 168.068 39.9464C168.464 39.4974 168.94 39.1076 169.279 38.6205C169.839 37.8157 170.415 38.4291 170.786 38.6826C171.145 38.9283 171.314 39.499 170.928 40.0391C169.353 42.2448 168.087 44.6591 167.023 47.1162C166.265 48.8678 165.007 50.402 164.744 52.4403C164.644 53.212 164.117 54.1025 163.825 54.9665C163.434 56.1217 162.63 55.1654 162.011 55.1231C161.913 55.1165 161.827 54.829 161.737 54.8307C161.356 54.8361 161.131 55.8074 160.684 55.1335C160.078 54.2189 159.43 53.3561 159.854 52.0042C160.528 49.8582 161.563 47.9222 162.696 46.0223C164.232 43.4464 165.649 40.7797 167.834 38.6541C167.996 38.4975 168.143 38.3256 168.316 38.1823C168.493 38.0344 168.732 37.9081 168.923 38.0899C169.165 38.3214 169.037 38.6014 168.825 38.7754C166.971 40.293 166.048 42.4821 164.749 44.399C164.651 44.5448 164.585 44.7142 164.505 44.8725Z" fill="black"/>
<path fill-rule="evenodd" clip-rule="evenodd" d="M118.783 82.9959C119.354 82.4566 120 81.9753 120.478 81.3636C121.037 80.6499 121.658 80.4933 122.445 80.8044C122.912 80.99 122.813 81.4804 122.768 81.7931C122.651 82.5979 122.175 83.2179 121.397 83.5046C121.211 83.5729 120.931 83.4321 120.932 83.7684C120.936 85.4115 119.495 86.2863 118.876 87.6027C118.686 88.0061 118.331 88.3892 118.082 88.803C117.354 90.0113 116.758 91.3239 115.215 91.7865C114.855 91.8942 114.285 92.216 114.48 92.7624C115.072 94.4287 113.905 95.5417 113.243 96.7772C112.154 98.8072 110.773 100.672 109.764 102.752C109.65 102.986 109.58 103.32 109.252 103.238C108.844 103.136 109.385 102.774 109.102 102.56C108.592 102.831 108.145 103.564 107.435 102.699C107.181 102.391 106.809 102.912 106.626 103.24C106.488 103.489 106.335 103.723 106.023 103.54C105.644 103.319 105.97 103.087 106.07 102.884C107.889 99.1763 110.136 95.7285 112.468 92.332C114.522 89.3407 116.575 86.3489 118.628 83.3584C118.679 83.2382 118.731 83.1173 118.783 82.9959Z" fill="black"/>
<path fill-rule="evenodd" clip-rule="evenodd" d="M138.667 69.8361C139.926 67.8877 141.195 65.9418 142.596 64.0845C140.998 65.2832 139.071 68.0649 138.667 69.8361ZM141.131 72.7936C140.739 72.9079 141.738 71.546 140.67 72.3823C140.642 72.4047 140.586 72.4391 140.573 72.4291C139.869 71.8828 139.249 71.9134 138.605 72.5811C138.436 72.7563 137.125 71.2867 137.097 70.8527C137.054 70.1974 137.22 69.5769 137.508 69.0033C139.135 65.7634 141.424 63.0715 144.316 60.8932C145.733 59.8258 147.219 59.9422 148.702 60.737C149.499 61.1641 149.495 61.6773 148.833 62.3164C148.136 62.9886 147.472 63.7015 146.848 64.4421C146.128 65.2966 145.525 66.2347 144.732 67.0478C143.691 68.1152 143.332 69.6291 142.575 70.8966C142.156 71.5962 141.788 72.3061 141.131 72.7936Z" fill="black"/>
<path fill-rule="evenodd" clip-rule="evenodd" d="M174.133 74.7408C173.968 75.3062 173.868 75.6463 173.716 76.1649C173.968 75.9694 174.123 75.9101 174.169 75.8037C174.546 74.9421 175.238 75.165 175.784 75.4437C176.368 75.742 176.519 76.4155 176.286 76.9962C175.905 77.9439 175.464 78.8824 174.926 79.7494C174.185 80.9456 173.345 82.1016 172.84 83.408C172.312 84.7724 171.542 86.0999 171.871 87.7041C172.027 88.4613 171.395 88.9061 170.703 88.5963C170.327 88.4273 169.989 88.4463 169.618 88.465C167.263 88.5826 166.048 86.913 166.962 84.6651C168.252 81.4969 170.333 78.8186 172.5 76.2137C172.914 75.7159 173.199 75.0536 174.133 74.7408Z" fill="black"/>
<path fill-rule="evenodd" clip-rule="evenodd" d="M88.3097 124.22C88.2956 125.066 89.0093 125.477 89.1079 126.152C88.0649 126.294 87.4076 125.729 87.1794 124.564C86.9317 123.299 87.3272 122.134 87.9427 121.126C89.2525 118.98 90.3455 116.711 92.1751 114.858C92.8908 114.133 93.3858 112.96 94.082 112.083C96.0665 109.582 98.1379 107.15 100.184 104.698C100.595 104.205 101.082 103.792 101.645 103.471C101.933 103.306 102.217 103.269 102.485 103.484C102.772 103.716 102.741 104.012 102.58 104.297C102.341 104.722 102.126 105.17 101.828 105.55C99.0628 109.062 96.223 112.519 93.5361 116.089C92.4894 117.481 91.6722 119.079 91.1089 120.75C90.8488 121.521 91.1275 122.368 91.2158 123.179C91.2394 123.4 91.548 123.701 91.1569 123.867C90.406 124.186 89.7768 124.501 90.4375 125.479C90.5878 125.702 90.2461 125.819 90.0084 125.825C89.5834 125.835 89.0942 125.828 89.0441 125.3C88.9985 124.815 88.7239 124.569 88.3097 124.22Z" fill="black"/>
<path fill-rule="evenodd" clip-rule="evenodd" d="M106.313 66.5308C106.07 66.3581 105.933 66.325 105.827 66.5839C105.439 67.527 105.116 68.5099 104.61 69.3859C104.304 69.9153 104.37 71.0071 103.197 70.6886C103.011 70.6381 103.049 70.8729 103.134 71.0059C103.331 71.3165 103.209 71.5443 102.994 71.8057C102.629 72.251 102.528 72.7451 102.623 73.3556C102.799 74.4831 102.015 75.0327 100.983 74.5701C100.86 74.5141 100.64 74.3261 100.628 74.404C100.365 76.2414 99.3693 73.805 98.963 74.6952C98.6581 74.4417 98.5148 74.119 98.48 73.7205C98.4005 72.8072 98.7741 72.0347 99.1978 71.2763C100.803 68.403 103.103 66.1096 105.461 63.8775C106.029 63.3394 106.885 63.3104 107.621 63.0938C108.053 62.9666 108.308 63.3245 108.471 63.6666C108.695 64.1355 108.449 64.1844 108.065 64.0593C108.014 64.9005 107.464 65.4829 107.013 66.1216C106.814 66.4028 106.685 66.7429 106.313 66.5308Z" fill="black"/>
<path fill-rule="evenodd" clip-rule="evenodd" d="M139.888 20.344C139.795 20.2752 139.702 20.2065 139.61 20.1377C139.077 20.9814 138.54 21.8218 138.02 22.6734C137.959 22.7728 137.841 22.9522 138.021 23.0607C138.146 23.1361 138.36 23.1576 138.403 22.9994C138.674 21.9908 139.62 21.3492 139.888 20.344ZM135.962 30.5857C135.633 31.0616 135.868 31.8751 134.83 31.9405C134.08 31.9881 134.216 31.6257 134.215 31.2397C133.57 31.2977 133.828 32.0639 133.257 32.216C133.022 31.1792 133.404 30.1868 133.358 29.1906C133.365 29.1612 133.369 29.1289 133.372 29.0941C134.173 28.4065 134.358 27.3777 134.802 26.4938C134.985 26.1284 135.049 25.6927 135.274 25.3618C137.084 22.6989 138.557 19.8235 140.507 17.2434C142.035 15.2213 143.388 13.0683 145.02 11.1203C145.395 10.6725 145.727 10.1817 146.532 9.7124C145.911 10.8374 145.438 11.6931 144.965 12.5489C144.977 12.5149 144.987 12.4801 144.996 12.4441C143.751 13.4303 143.243 14.9529 142.177 16.0894C142.541 16.398 142.651 16.0762 142.826 16.0397C143.126 15.978 143.311 16.1661 143.427 16.4241C143.484 16.5504 143.598 16.7368 143.396 16.7886C142.502 17.0185 142.716 17.7607 142.69 18.3493C142.661 19 142.307 19.3575 141.799 19.6483C141.015 20.096 140.549 20.731 140.633 21.6791C140.496 21.8825 140.359 22.0862 140.221 22.2896C139.364 22.7096 138.139 24.7554 138.226 25.6198C137.737 25.6451 137.544 26.5712 136.879 26.0634C136.682 25.5158 136.57 25.2565 136.058 25.9383C135.411 26.799 135.515 27.9712 134.735 28.7404C134.619 28.8543 134.627 29.0225 134.786 29.1198C134.993 29.2465 135.184 29.1538 135.216 28.9508C135.353 28.0735 136.054 27.4568 136.266 26.6222C136.356 26.2701 136.451 25.9619 136.911 26.0315C137.19 27.6573 135.939 28.7677 135.509 30.1557C135.453 30.3396 134.763 29.8442 135.013 30.4631C135.135 30.765 135.594 30.9149 135.962 30.5857Z" fill="black"/>
<path fill-rule="evenodd" clip-rule="evenodd" d="M161.582 105.677C161.352 106.309 161.53 106.88 161.732 107.428C161.839 107.716 161.919 107.935 161.573 108.055C161.258 108.164 161.064 107.942 160.953 107.702C160.667 107.089 160.738 106.405 160.907 105.821C161.553 103.59 162.764 101.654 164.257 99.8878C164.7 99.3643 165.225 98.89 165.573 98.3089C166.203 97.2527 167.277 96.9516 168.3 96.6177C168.778 96.4616 168.87 97.1027 168.968 97.4478C169.024 97.6453 168.879 98.0285 168.703 98.1436C167.002 99.2562 166.728 101.329 165.574 102.82C165.194 103.311 165.368 104.307 164.877 104.959C164.489 105.475 164.279 106.119 163.558 106.364C163.142 106.506 163.457 107.041 163.269 107.36C163.172 107.524 163.113 107.72 162.908 107.747C162.703 107.773 162.445 107.599 162.482 107.468C162.73 106.588 161.691 106.364 161.582 105.677Z" fill="black"/>
<path fill-rule="evenodd" clip-rule="evenodd" d="M118.783 82.9957C118.731 83.1171 118.679 83.2381 118.628 83.3582C117.134 84.6749 115.929 86.2625 114.759 87.8427C113.15 90.0165 111.695 92.3124 110.294 94.6286C109.108 96.589 107.595 98.3506 106.764 100.534C106.426 101.421 105.866 102.23 104.889 102.835C104.658 101.5 105.508 100.645 105.998 99.7046C107.289 97.2256 108.919 94.9541 110.522 92.6744C113.415 88.5618 116.133 84.3096 119.738 80.7454C119.944 80.5416 120.109 80.2612 120.605 80.4128C120.281 81.4922 119.246 82.0588 118.783 82.9957Z" fill="black"/>
<path fill-rule="evenodd" clip-rule="evenodd" d="M162.565 67.249C162.121 67.5742 162.644 68.4523 161.965 68.3094C161.386 68.1872 161.595 67.481 161.74 67.0328C162.643 64.2577 164.422 62.204 166.998 60.8591C167.388 60.6553 167.954 60.3443 168.315 60.9213C168.635 61.4328 168.14 61.7439 167.857 62.064C166.671 63.4077 165.546 64.7795 165.25 66.6314C165.176 67.0966 164.798 67.2643 164.414 67.4217C164.28 67.4768 164.145 67.5667 164.049 67.6748C163.297 68.5306 162.729 68.6208 162.565 67.249Z" fill="black"/>
<path fill-rule="evenodd" clip-rule="evenodd" d="M139.34 17.4523C139.216 18.8344 138.034 19.5974 137.392 20.6735C136.916 21.4704 136.528 22.3746 135.767 23.0075C135.578 23.1649 135.502 23.512 135.19 23.3364C134.941 23.1964 134.891 22.9131 135.059 22.6468C136.069 21.045 137.051 19.4239 138.258 17.9572C138.543 17.6109 138.993 17.6204 139.372 17.4796L139.34 17.4523Z" fill="black"/>
<path fill-rule="evenodd" clip-rule="evenodd" d="M139.372 17.4798C139.231 17.1737 139.067 16.8891 139.324 16.5399C140.779 14.5596 142.204 12.5562 143.89 10.7589C144.021 10.6198 144.093 10.2901 144.388 10.4963C144.575 10.6272 144.528 10.8298 144.4 10.9917C142.751 13.0764 141.151 15.1967 139.654 17.3936C139.611 17.4553 139.447 17.4346 139.34 17.4524L139.372 17.4798Z" fill="black"/>
<path fill-rule="evenodd" clip-rule="evenodd" d="M133.372 29.0938C133.37 29.1286 133.365 29.1613 133.358 29.1907C133.159 29.6948 132.724 30.1028 132.761 30.705C132.774 30.9196 132.803 31.2244 132.476 31.1963C132.184 31.171 132.224 30.8997 132.249 30.6686C132.478 28.6137 133.177 26.6923 133.955 24.7998C134.089 24.475 134.48 24.1263 134.838 24.2928C135.261 24.4899 134.941 24.9083 134.791 25.1535C134.045 26.3733 133.72 27.7356 133.372 29.0938Z" fill="black"/>
<path fill-rule="evenodd" clip-rule="evenodd" d="M144.997 12.4442C144.988 12.4798 144.977 12.5146 144.965 12.5486C145.442 12.0644 146.27 11.921 146.351 11.028C146.364 10.8806 146.739 10.3413 147.119 10.6739C147.479 10.9899 147.094 11.3238 146.885 11.5213C145.942 12.4148 145.193 13.4242 144.764 14.7795C144.402 14.3561 143.861 14.0799 144.581 13.5658C144.969 13.2896 144.814 12.8021 144.997 12.4442Z" fill="black"/>
<path fill-rule="evenodd" clip-rule="evenodd" d="M140.221 22.2896C140.359 22.0862 140.496 21.8824 140.633 21.6791C140.798 21.549 140.964 21.4194 141.129 21.2893C141.187 21.3295 141.245 21.3696 141.302 21.4098C140.923 22.0879 140.542 22.7655 140.163 23.4436C140.081 23.417 140 23.3901 139.919 23.3632C140.02 23.0057 140.12 22.6475 140.221 22.2896Z" fill="black"/>
<path fill-rule="evenodd" clip-rule="evenodd" d="M136.402 30.0002C136.181 29.222 136.748 28.7054 137.045 28.1053C137.337 27.5167 137.677 26.9517 137.996 26.376C138.108 26.6688 138.082 26.9281 137.919 27.2147C137.395 28.1334 136.905 29.0704 136.402 30.0002Z" fill="black"/>
</svg>
