<svg width="1540" height="484" viewBox="0 0 1540 484" fill="none" xmlns="http://www.w3.org/2000/svg">
<path opacity="0.2" fill-rule="evenodd" clip-rule="evenodd" d="M-36.3611 436.569C27.8481 466.107 194.563 511.805 347.869 458.292C371.847 449.922 388.479 439.646 399.733 428.033C410.993 416.414 416.847 403.478 419.302 389.833C421.755 376.198 420.811 361.866 418.496 347.446C416.825 337.034 414.434 326.549 412.083 316.239C411.179 312.277 410.282 308.342 409.433 304.446C403.302 276.298 399.746 250.263 414.442 230.753C429.142 211.239 462.253 198.068 530.051 196.153C632.069 193.272 701.991 218.46 761.217 239.794C780.661 246.798 798.951 253.387 816.847 258.431C853.045 268.634 887.605 272.497 926.721 260.59C965.822 248.687 1009.42 221.043 1063.74 168.349C1117.98 115.743 1163.26 100.096 1203.68 104.88C1244.15 109.669 1279.88 134.938 1314.98 164.489C1323.46 171.628 1331.9 179.018 1340.37 186.426C1366.9 209.642 1393.62 233.028 1422.26 249.4C1460.07 271.02 1501.3 280.456 1549.97 261.235L1549.6 260.304C1501.29 279.387 1460.38 270.043 1422.75 248.532C1394.21 232.214 1367.6 208.923 1341.09 185.723L1341.08 185.722C1332.61 178.303 1324.14 170.893 1315.62 163.724C1280.52 134.17 1244.59 108.714 1203.8 103.887C1162.97 99.055 1117.41 114.902 1063.05 167.631C1008.78 220.271 965.316 247.795 926.43 259.633C887.56 271.466 853.208 267.641 817.118 257.469C799.309 252.449 781.072 245.879 761.663 238.887C702.415 217.543 632.249 192.266 530.023 195.154C462.207 197.069 428.648 210.232 413.644 230.152C398.635 250.076 402.339 276.575 408.456 304.659C409.309 308.575 410.21 312.523 411.115 316.491C413.463 326.79 415.843 337.226 417.509 347.605C419.815 361.974 420.742 376.179 418.318 389.656C415.895 403.123 410.125 415.873 399.015 427.337C387.9 438.807 371.418 449.013 347.54 457.348C194.569 510.744 28.1365 465.139 -35.9432 435.66L-36.3611 436.569ZM327.666 424.245C174.36 477.758 7.64502 432.059 -56.5642 402.521L-56.1464 401.613C7.93335 431.091 174.366 476.697 327.337 423.3C351.215 414.965 367.697 404.76 378.812 393.29C389.922 381.825 395.692 369.075 398.114 355.609C400.539 342.132 399.612 327.926 397.306 313.557C395.64 303.179 393.26 292.743 390.911 282.443C390.007 278.475 389.106 274.528 388.253 270.611C382.136 242.528 378.432 216.029 393.441 196.104C408.445 176.185 442.004 163.021 509.819 161.106C612.046 158.219 682.212 183.496 741.46 204.84C760.869 211.832 779.106 218.401 796.915 223.421C833.005 233.593 867.356 237.418 906.227 225.585C945.113 213.748 988.577 186.223 1042.84 133.583C1097.2 80.8542 1142.77 65.0074 1183.6 69.8391C1224.39 74.6661 1260.32 100.122 1295.42 129.676C1303.94 136.846 1312.4 144.256 1320.88 151.676C1347.39 174.876 1374.01 198.167 1402.55 214.484C1440.18 235.995 1481.08 245.339 1529.4 226.257L1529.76 227.187C1481.1 246.408 1439.87 236.973 1402.05 215.352C1373.41 198.98 1346.69 175.594 1320.16 152.378L1320.16 152.373C1311.7 144.967 1303.25 137.579 1294.78 130.441C1259.68 100.891 1223.95 75.621 1183.48 70.8322C1143.06 66.0482 1097.77 81.6954 1043.54 134.301C989.217 186.996 945.618 214.639 906.518 226.542C867.402 238.449 832.842 234.587 796.643 224.384C778.748 219.34 760.457 212.751 741.014 205.747C681.788 184.412 611.866 159.224 509.848 162.106C442.05 164.021 408.939 177.191 394.239 196.706C379.543 216.215 383.099 242.251 389.23 270.399C390.079 274.294 390.976 278.23 391.88 282.191C394.231 292.501 396.622 302.986 398.293 313.398C400.608 327.819 401.551 342.151 399.099 355.786C396.644 369.431 390.79 382.366 379.53 393.985C368.276 405.599 351.644 415.875 327.666 424.245ZM-76.7673 368.474C-12.5581 398.011 154.157 443.71 307.463 390.197C331.441 381.827 348.073 371.551 359.327 359.938C370.587 348.319 376.441 335.383 378.896 321.738C381.348 308.103 380.405 293.771 378.09 279.351C376.419 268.939 374.028 258.454 371.677 248.143C370.773 244.182 369.876 240.247 369.027 236.351C362.896 208.203 359.34 182.168 374.036 162.658C388.736 143.143 421.847 129.973 489.644 128.058C591.663 125.177 661.585 150.364 720.81 171.699C740.254 178.703 758.545 185.292 776.44 190.336C812.639 200.539 847.198 204.402 886.315 192.494C925.415 180.592 969.014 152.948 1023.34 100.253C1077.57 47.6478 1122.85 32.0005 1163.28 36.7846C1203.74 41.5734 1239.47 66.843 1274.57 96.3935C1283.05 103.531 1291.49 110.918 1299.95 118.324L1299.96 118.325L1299.96 118.329L1299.96 118.33C1326.49 141.547 1353.21 164.933 1381.85 181.305C1419.67 202.925 1460.9 212.361 1509.56 193.139L1509.19 192.209C1460.88 211.292 1419.97 201.948 1382.35 180.437C1353.8 164.119 1327.19 140.828 1300.68 117.628C1292.2 110.209 1283.73 102.798 1275.22 95.6285C1240.11 66.0745 1204.18 40.6185 1163.4 35.7915C1122.57 30.9598 1077 46.8065 1022.64 99.5357C968.374 152.176 924.91 179.7 886.024 191.538C847.153 203.37 812.802 199.546 776.712 189.373C758.903 184.354 740.666 177.784 721.257 170.792C662.008 149.448 591.843 124.171 489.616 127.058C421.801 128.974 388.242 142.137 373.237 162.056C358.229 181.981 361.933 208.48 368.05 236.564C368.903 240.478 369.802 244.424 370.707 248.39L370.708 248.393L370.708 248.395L370.708 248.396C373.057 258.695 375.437 269.131 377.103 279.509C379.409 293.878 380.336 308.084 377.911 321.561C375.489 335.028 369.718 347.778 358.609 359.242C347.494 370.712 331.012 380.918 307.134 389.253C154.163 442.649 -12.2698 397.043 -76.3495 367.565L-76.7673 368.474ZM-96.9705 334.426C-32.7612 363.964 133.953 409.663 287.26 356.149C311.238 347.78 327.87 337.503 339.124 325.89C350.384 314.271 356.238 301.335 358.692 287.69C361.145 274.056 360.201 259.723 357.887 245.303C356.216 234.891 353.825 224.406 351.474 214.096C350.57 210.134 349.673 206.199 348.824 202.303C342.693 174.155 339.137 148.12 353.833 128.61C368.533 109.096 401.644 95.9253 469.441 94.0104C571.46 91.1289 641.382 116.317 700.607 137.651C720.051 144.656 738.342 151.244 756.237 156.288C792.436 166.491 826.995 170.354 866.112 158.447C905.212 146.544 948.811 118.9 1003.13 66.2058C1057.37 13.6002 1102.65 -2.04709 1143.07 2.73694C1183.54 7.52579 1219.27 32.7953 1254.37 62.3459C1262.85 69.4816 1271.29 76.8679 1279.75 84.2715L1279.76 84.2807L1279.76 84.2828C1306.29 107.499 1333.01 130.885 1361.65 147.257C1399.46 168.877 1440.69 178.313 1489.36 159.092L1488.99 158.162C1440.68 177.244 1399.77 167.9 1362.14 146.389C1333.6 130.072 1306.99 106.78 1280.48 83.5804C1272 76.1609 1263.53 68.7507 1255.01 61.5809C1219.91 32.0269 1183.98 6.57083 1143.19 1.74387C1102.36 -3.08786 1056.8 12.7589 1002.44 65.488C948.17 118.128 904.707 145.652 865.82 157.49C826.95 169.323 792.599 165.498 756.508 155.326C738.7 150.306 720.464 143.737 701.056 136.745L701.054 136.745C641.805 115.4 571.64 90.1234 469.413 93.0108C401.598 94.9262 368.039 108.09 353.034 128.009C338.026 147.933 341.73 174.432 347.847 202.516C348.7 206.432 349.6 210.379 350.505 214.346L350.505 214.347L350.505 214.348C352.854 224.647 355.234 235.083 356.9 245.462C359.206 259.831 360.133 274.037 357.708 287.513C355.286 300.98 349.515 313.73 338.406 325.194C327.29 336.665 310.808 346.87 286.93 355.205C133.96 408.601 -32.4729 362.996 -96.5526 333.518L-96.9705 334.426Z" fill="url(#paint0_linear_35_679)"/>
<defs>
<linearGradient id="paint0_linear_35_679" x1="1360.57" y1="123.269" x2="-82.8775" y2="123.269" gradientUnits="userSpaceOnUse">
<stop offset="0.310417" stop-color="#4535AF" stop-opacity="0.7"/>
<stop offset="0.461458" stop-color="#F8EFF4" stop-opacity="0.1"/>
<stop offset="0.851637" stop-color="#4535AF" stop-opacity="0.8"/>
</linearGradient>
</defs>
</svg>
