<svg width="1170" height="446" viewBox="0 0 1170 446" fill="none" xmlns="http://www.w3.org/2000/svg">
<rect y="20" width="1170" height="426" rx="20" fill="#F3F7FA"/>
<path fill-rule="evenodd" clip-rule="evenodd" d="M1164.66 49.4461C1164.62 49.5509 1164.52 49.8139 1164.4 50.1449C1164.51 50.1958 1164.62 50.2501 1164.78 50.3263C1164.86 50.6187 1165.31 50.9281 1165.04 51.3237C1164.79 51.6795 1165.44 52.0556 1164.95 52.3443C1165.03 53.0907 1164.5 53.6292 1164.16 54.1506C1163.84 54.6236 1163.77 55.2143 1163.29 55.6252C1162.88 55.9826 1162.65 56.5497 1162.33 57.026C1162.06 57.0384 1161.81 57.0492 1161.46 57.065C1161.52 57.2671 1161.57 57.4187 1161.64 57.6577C1161.55 57.7637 1161.39 57.9389 1161.22 58.1286C1161.33 58.4476 1161.43 58.7474 1161.54 59.0995C1161.38 59.2855 1161.22 59.4702 1161.04 59.6719C1161.18 59.7216 1161.31 59.768 1161.53 59.8471C1161.28 60.0273 1161.07 60.1756 1160.85 60.3313C1160.89 60.3815 1160.96 60.4589 1161.06 60.5803C1160.31 60.8586 1159.65 60.1884 1158.82 60.5123C1158.31 60.8797 1157.94 61.6294 1157.18 61.9065C1156.89 62.0138 1157.14 62.549 1156.64 62.486C1156.46 62.4636 1156.59 63.0369 1156.17 62.9255C1156.02 63.4449 1155.55 63.6536 1155.19 63.9809C1154.88 64.2518 1154.61 64.6051 1154.36 64.9584C1154.16 65.2525 1153.94 65.5374 1153.72 65.8232C1153.53 66.0821 1153.3 66.3203 1153.14 66.5986C1153 66.836 1153.01 67.2415 1152.83 67.3487C1152.58 67.4929 1152.41 67.6486 1152.36 67.9837C1152.11 67.8379 1151.97 67.7493 1151.82 67.6598C1151.35 67.888 1150.88 68.1051 1150.42 67.5343V66.3484C1149.52 65.8452 1148.59 65.4057 1148.17 64.2679C1148.2 63.8926 1148.02 63.3608 1148.38 62.9218C1147.86 61.8747 1148.31 60.9883 1148.82 60.1151C1149.43 59.0643 1150.22 58.1671 1151.16 57.3408C1150.61 56.5161 1150.03 55.7478 1149.56 54.9198C1149.24 54.3503 1148.89 53.729 1148.87 53.0774C1148.85 52.4023 1148.64 51.6977 1149.04 51.0131C1149.22 50.7065 1149.05 50.2625 1149.25 49.8587C1149.37 49.616 1149.45 49.3463 1149.63 49.1135C1149.73 48.988 1149.73 48.778 1149.81 48.445C1150 48.2723 1150.46 48.0395 1150.56 47.7015C1150.7 47.2103 1151.33 47.3975 1151.32 46.823C1151.48 46.946 1151.56 47.0007 1151.67 47.0856C1151.93 47.0086 1152.22 46.9216 1152.53 46.8313C1152.64 47.0434 1152.73 47.221 1152.85 47.4373C1152.62 47.8444 1152.38 48.2893 1152.1 48.8004C1152.65 48.7453 1153.08 48.7022 1153.45 48.6658C1153.6 48.8161 1153.68 48.8957 1153.77 48.9843C1153.62 49.28 1153.47 49.5791 1153.27 49.9738C1153.62 50.0103 1153.9 50.0384 1154.24 50.0732C1154.15 50.4725 1154.07 50.8731 1153.99 51.267C1153.84 51.3954 1153.69 51.5345 1153.53 51.6779C1153.63 51.7793 1153.67 51.8336 1153.68 51.8282C1153.83 51.7466 1153.97 51.6576 1154.15 51.5515C1154.21 51.7097 1154.24 51.8071 1154.29 51.933C1153.97 52.095 1153.67 52.249 1153.32 52.4242C1153.48 52.4781 1153.61 52.5207 1153.84 52.5994C1153.58 52.8691 1153.34 53.1085 1153.03 53.4212C1153.42 53.7348 1153.77 54.0131 1154.15 54.3113C1154.71 54.417 1155.15 54.1825 1155.59 53.8048C1156.6 52.9321 1157.71 52.1703 1158.71 51.2931C1159.73 50.3947 1160.81 49.5145 1161.54 48.3108C1161.71 48.0292 1162.01 47.8254 1162.26 47.5694H1163.45C1163.52 47.6518 1163.63 47.7939 1163.75 47.9397C1163.62 48.3104 1163.48 48.6923 1163.31 49.1885C1163.67 49.0895 1163.96 49.0092 1164.34 48.9044C1164.4 49.0079 1164.5 49.169 1164.66 49.4461Z" fill="black"/>
<path fill-rule="evenodd" clip-rule="evenodd" d="M1092.97 73.236C1092.6 73.3495 1092.3 73.4431 1091.91 73.5636C1092.01 73.3602 1092.07 73.226 1092.15 73.0558C1091.89 72.6652 1091.6 72.3156 1091.06 72.3931C1091.02 72.2348 1090.99 72.133 1090.96 71.9913H1090.02C1089.93 71.8981 1089.85 71.8538 1089.83 71.79C1089.68 71.3592 1089.65 70.8473 1089.39 70.5093C1089.06 70.0748 1089.23 69.6486 1089.21 69.2277C1089.2 68.886 1089.34 68.536 1089.42 68.1931C1089.72 66.967 1090.19 65.8011 1090.78 64.6922C1091.15 64.0105 1091.56 63.3465 1092.01 62.7165C1092.45 62.101 1092.96 61.5389 1093.46 60.9346C1093.32 60.8485 1093.17 60.7482 1093.02 60.6575C1091.54 59.7811 1090.24 58.6776 1089.04 57.4541C1088.47 56.8767 1088.47 56.1017 1088.3 55.3885C1088.23 55.1031 1088.29 54.7887 1088.29 54.4876C1088.59 53.9085 1089.21 53.8596 1089.8 53.6235C1090 53.9756 1090.2 54.3376 1090.44 54.7448C1090.48 54.715 1090.55 54.6632 1090.67 54.57C1090.75 54.647 1090.89 54.7212 1090.93 54.8301C1091.16 55.5015 1091.71 55.8432 1092.29 56.134C1093.48 56.7267 1094.68 57.2963 1095.95 57.9147C1096.25 57.5999 1096.54 57.1169 1096.98 56.8754C1097.38 56.6526 1097.4 56.0151 1098.02 56.0764C1097.93 55.9675 1097.87 55.8917 1097.77 55.779C1097.97 55.6457 1098.16 55.5106 1098.43 55.3226C1098.51 55.1354 1098.64 54.85 1098.77 54.5704C1098.96 54.5592 1099.14 54.5489 1099.4 54.534C1099.29 54.3931 1099.23 54.3198 1099.14 54.2055C1099.62 54.1355 1099.65 53.6389 1099.95 53.3721C1100.27 53.0901 1100.5 52.7028 1100.8 52.3151C1100.87 52.3644 1100.94 52.4157 1101.07 52.5139C1101.13 52.3756 1101.19 52.2451 1101.26 52.0815C1101.34 52.1473 1101.41 52.2078 1101.55 52.318C1101.7 51.5248 1102.15 50.8886 1102.62 50.3166C1103.12 49.7267 1103.56 49.0495 1104.37 48.6548C1104.47 48.738 1104.6 48.8495 1104.75 48.9754C1104.44 49.5872 1104.13 50.1935 1103.48 50.5129V51.4163C1103.63 51.3786 1103.79 51.3856 1103.82 51.3251C1103.95 51.0812 1104.04 50.8165 1104.09 50.6918C1104.63 50.2495 1105.07 49.8883 1105.62 49.4327C1105.65 49.8547 1105.67 50.1302 1105.69 50.3944C1105.53 50.4636 1105.4 50.5162 1105.26 50.5717C1105.3 50.6202 1105.34 50.7138 1105.36 50.7088C1105.64 50.6525 1105.91 50.5812 1106.24 50.4988C1106.34 50.6653 1106.45 50.8679 1106.57 51.0716C1106.51 51.1408 1106.43 51.2228 1106.35 51.3115C1106.4 51.6387 1106.79 51.9274 1106.49 52.3022C1106.4 52.2223 1106.32 52.1511 1106.24 52.0777C1106.2 52.1477 1106.13 52.2219 1106.15 52.2687C1106.19 52.4012 1106.26 52.5226 1106.35 52.6941C1106.29 53.2677 1105.83 53.6488 1105.41 54.0361C1105 54.4027 1104.56 54.7245 1104.04 55.1399C1104.26 55.2621 1104.44 55.369 1104.65 55.4891C1104.52 55.7389 1104.44 55.8896 1104.36 56.0479C1104.41 56.1013 1104.48 56.18 1104.59 56.3034C1104.34 56.3428 1104.14 56.3763 1103.84 56.4248C1103.92 56.6306 1103.99 56.8059 1104.07 57.0092H1103.32C1103.18 57.2954 1103.06 57.5452 1102.94 57.783C1103.05 57.8989 1103.12 57.9801 1103.23 58.0969C1103 58.1396 1102.79 58.1781 1102.49 58.2344C1102.57 58.4266 1102.63 58.5998 1102.71 58.8056C1102.52 58.8342 1102.31 58.8648 1102.04 58.9046C1102.12 59.1192 1102.18 59.2931 1102.29 59.5814C1102 59.4671 1101.78 59.3838 1101.52 59.2836C1101.4 59.5156 1101.28 59.7525 1101.16 59.9828C1101.2 60.0648 1101.22 60.1547 1101.27 60.1824C1101.36 60.2313 1101.48 60.2222 1101.57 60.2719C1101.91 60.4649 1101.99 60.9122 1102.33 61.104C1102.7 61.3111 1102.86 61.6665 1103.09 61.983C1103.3 62.2679 1103.46 62.5082 1103.44 62.8689C1103.43 62.9924 1103.54 63.1232 1103.61 63.2777C1103.55 63.3792 1103.46 63.5238 1103.35 63.7218C1103.04 63.757 1102.82 64.1658 1102.26 63.95C1101.29 63.5727 1100.28 63.2347 1099.22 63.1075C1099.16 63.1005 1099.11 63.0069 1099.02 62.9108C1098.71 63.2591 1098.4 63.605 1098.02 64.0395C1098.01 64.0805 1097.99 64.2582 1097.97 64.4499C1097.75 64.4839 1097.54 64.5166 1097.22 64.5672C1097.43 64.8654 1097.59 65.0882 1097.83 65.4204C1097.56 65.3421 1097.38 65.2903 1097.16 65.2241C1097.11 65.2796 1097.02 65.3918 1096.91 65.5136C1097.04 65.8752 1096.94 66.0964 1096.51 66.337C1096.39 66.7927 1096.27 67.2305 1096.16 67.5958C1095.97 67.6662 1095.87 67.7056 1095.73 67.7565L1095.98 68.0038C1095.64 68.2622 1095.25 68.4714 1094.99 68.7854C1094.75 69.0683 1094.65 69.4659 1094.47 69.8669C1094.49 69.8942 1094.56 70.0052 1094.68 70.1812C1094.43 70.4376 1094.19 70.6895 1093.95 70.9314C1094.04 71.0457 1094.11 71.1298 1094.23 71.2756C1094.06 71.4653 1093.9 71.6516 1093.72 71.8592V72.5177C1093.45 72.7745 1093.18 73.0351 1092.97 73.236Z" fill="black"/>
<path fill-rule="evenodd" clip-rule="evenodd" d="M1120.75 77.7378C1121.27 78.369 1121.27 78.3703 1121.91 78.0203C1121.92 78.2224 1121.92 78.3984 1121.96 78.5608C1121.99 78.6759 1122.09 78.7733 1122.15 78.871C1122.07 78.9518 1122.02 79.0048 1121.95 79.0728C1122.11 79.1465 1122.26 79.2173 1122.51 79.3329C1122.25 79.6986 1122.01 80.0432 1121.76 80.3883C1122.08 80.9491 1121.42 81.0485 1121.32 81.3488C1121.18 81.8127 1120.61 81.9125 1120.6 82.4083C1120.58 82.9865 1119.98 83.0578 1119.73 83.3945C1119.5 83.6874 1119.1 83.8787 1119.05 84.2523C1119.14 84.4048 1119.21 84.5253 1119.33 84.7237C1118.99 84.9126 1118.7 85.0778 1118.41 85.2431L1117.71 85.5761C1117.49 85.8288 1117.28 86.0815 1116.99 86.4186V86.6402C1116.27 87.17 1115.6 87.6658 1114.82 88.2407C1115.04 88.3546 1115.17 88.4238 1115.4 88.5385C1115.09 88.973 1114.77 89.4129 1114.44 89.8855C1115.3 90.1812 1116.12 90.46 1116.96 90.7474C1116.88 90.9148 1116.81 91.056 1116.71 91.2474C1117.09 91.3812 1117.44 91.5062 1117.84 91.6491V92.1404C1118.09 92.3719 1118.31 92.5745 1118.54 92.7849C1118.56 93.0504 1118.57 93.3039 1118.58 93.5462L1118.99 93.9554L1117.95 94.8203C1117.71 95.0928 1117.45 95.0423 1117.18 94.8604C1117.09 94.8054 1116.98 94.7739 1116.88 94.7759C1115.71 94.8016 1114.66 94.3576 1113.59 93.9695C1112.81 93.6837 1112.06 93.318 1111.25 92.9684C1111.02 93.1891 1110.68 93.3565 1110.64 93.8121C1110.17 93.9231 1109.69 94.0374 1109.24 94.1439C1109 93.909 1108.82 93.7218 1108.63 93.5338C1108.7 93.4559 1108.78 93.3755 1108.88 93.2567C1108.77 93.0239 1108.65 92.7733 1108.58 92.6242C1108.23 92.678 1107.92 92.7261 1107.62 92.7725C1107.45 92.4428 1107.3 92.1449 1107.15 91.8405C1107.07 91.9155 1107.02 91.9685 1107 91.988C1106.75 91.7341 1106.5 91.4785 1106.15 91.1256C1106.26 90.3419 1105.76 89.4419 1105.89 88.4689C1105.92 88.2651 1105.77 87.9702 1105.6 87.8161C1104.93 87.1907 1104.91 86.2869 1104.59 85.5177C1104.47 85.2241 1104.35 84.8513 1104.34 84.4963C1104.32 83.9326 1104.25 83.3535 1104.35 82.8059C1104.5 81.9399 1104.67 81.0162 1105.67 80.6753C1106.01 80.5626 1106.37 80.5502 1106.81 80.4773V82.2389C1107.2 81.9929 1107.45 81.828 1107.83 81.582C1107.89 81.7377 1107.95 81.9233 1108.01 82.1088C1108.07 82.0658 1108.13 82.0227 1108.18 81.9796V83.0188C1108.38 82.9203 1108.52 82.849 1108.65 82.7815C1109.13 83.2007 1109.12 83.7375 1109.05 84.2896C1109.21 84.3464 1109.34 84.3923 1109.55 84.4665C1109.46 84.7084 1109.37 84.9486 1109.27 85.239C1109.4 85.2154 1109.46 85.2224 1109.5 85.193C1109.59 85.1234 1109.65 84.9991 1109.74 84.9627C1110.71 84.5961 1111.19 83.5706 1112.16 83.2139C1112.36 82.5127 1113.1 82.3632 1113.53 81.8906C1113.98 81.3993 1114.61 81.0796 1115.15 80.6699C1115.68 80.2731 1115.97 79.6046 1116.66 79.3946C1117.11 78.5757 1117.76 77.9552 1118.56 77.4922C1118.53 76.9375 1119.3 76.8688 1119.28 76.2839H1120.3C1120.37 76.3564 1120.48 76.4629 1120.58 76.5693C1120.09 76.812 1119.92 77.283 1119.6 77.7809C1120.28 77.9204 1120.67 77.0991 1121.3 77.4781C1121.12 77.5642 1120.97 77.6346 1120.75 77.7378Z" fill="black"/>
<path fill-rule="evenodd" clip-rule="evenodd" d="M1118.13 65.7984C1118.08 65.2703 1118.82 65.2123 1118.47 64.7203C1118.38 64.8006 1118.3 64.8715 1118.22 64.9423C1118.19 64.9154 1118.15 64.8918 1118.14 64.8619C1118.06 64.3086 1118.09 63.7838 1118.48 63.3327C1118.92 62.8373 1119.34 62.3378 1119.76 61.8275C1119.89 61.6664 1119.97 61.4647 1120.1 61.2377C1119.89 60.7046 1119.61 60.152 1119.37 59.6028C1119.11 59.013 1119.11 58.3735 1118.83 57.7899C1118.68 57.48 1119.07 56.9362 1118.98 56.5568C1118.88 56.1322 1118.63 55.771 1118.99 55.3709C1119 54.2518 1119.76 53.5542 1120.43 52.7772H1122.31C1122.42 52.8816 1122.53 52.9851 1122.7 53.152C1122.42 53.517 1122.13 53.8819 1121.81 54.2857C1121.85 54.3611 1121.93 54.5413 1122.05 54.7828C1122.15 54.7828 1122.36 54.8436 1122.43 54.772C1122.74 54.4634 1123.11 54.5881 1123.44 54.5516C1123.56 54.8163 1123.66 55.0375 1123.78 55.2831C1123.61 55.4952 1123.43 55.7143 1123.16 56.0461C1123.57 56.0974 1123.84 56.1318 1124.19 56.177V57.2597C1124.95 57.2845 1125.04 56.3604 1125.68 56.3642C1125.97 55.9202 1126.4 55.6112 1126.78 55.257C1127.22 54.849 1127.64 54.4166 1128.06 53.9821C1128.44 53.5816 1128.83 53.1827 1129.18 52.7503C1129.53 52.3046 1129.84 51.8191 1130.04 51.5251C1130.51 51.3577 1130.77 51.2633 1131.1 51.1465C1131.2 51.2985 1131.38 51.453 1131.42 51.639C1131.46 51.7819 1131.34 51.972 1131.27 52.1265C1131.18 52.3021 1131.06 52.4612 1131.06 52.7702C1131.39 52.6314 1131.72 52.4922 1132.08 52.3394C1132.28 52.7163 1132.48 53.1197 1132.8 53.7315C1132.8 53.7187 1132.78 53.9411 1132.8 54.1586C1132.82 54.3275 1132.89 54.4907 1132.96 54.7074C1132.91 54.7852 1132.83 54.9294 1132.76 55.0628C1132.87 55.1858 1132.94 55.2674 1133.01 55.3399C1132.36 56.3878 1131.77 57.4726 1131.05 58.487C1130.45 59.3386 1130.53 59.3982 1130.09 59.6393C1130.16 59.7175 1130.23 59.7962 1130.29 59.8596C1129.4 60.8612 1128.51 61.8548 1127.61 62.8634V63.2383C1128.32 63.6885 1129 64.1238 1129.72 64.579C1129.61 64.782 1129.55 64.9062 1129.45 65.0989C1129.72 65.3312 1129.9 65.7781 1130.43 65.6133C1130.54 65.8411 1130.64 66.0271 1130.73 66.2102C1130.66 66.3021 1130.58 66.416 1130.47 66.5722C1130.75 66.8559 1131 67.1106 1131.28 67.3861C1131.18 67.6557 1131.09 67.8856 1130.99 68.1403C1131.06 68.2646 1131.15 68.4145 1131.23 68.5525C1131.19 68.6382 1131.17 68.7268 1131.13 68.7596C1131.01 68.832 1130.85 68.8461 1130.77 68.9381C1130.28 69.4865 1130.2 69.5171 1129.59 69.3084C1128.8 69.0379 1127.94 68.8789 1127.22 68.4841C1126.25 67.9556 1125.38 67.2473 1124.38 66.5552C1123.96 66.8658 1123.49 67.292 1123.04 67.7771C1122.6 68.2464 1122.02 68.6183 1121.22 68.8577C1121.36 68.6237 1121.41 68.528 1121.54 68.3193C1121.04 68.4133 1120.61 68.492 1120.19 68.5707L1120.12 68.4253C1120.37 68.2269 1120.63 68.0289 1120.88 67.8309L1120.49 67.4378H1119.72C1119.61 67.1798 1119.5 66.8907 1119.36 66.551H1118.43C1118.3 66.2267 1118.18 65.936 1118.13 65.7984Z" fill="black"/>
<path fill-rule="evenodd" clip-rule="evenodd" d="M1123.03 43.6336C1122.64 43.7264 1122.3 43.8084 1121.82 43.924C1121.32 43.5582 1120.73 43.1026 1120.12 42.6751C1119.39 42.1653 1118.76 41.5158 1117.93 41.1567C1117.73 41.0734 1117.53 41.0134 1117.26 40.9173C1116.94 40.4314 1116.9 39.5293 1115.95 39.6287C1115.52 39.2352 1115.47 38.5518 1114.84 38.4855C1114.63 38.1347 1114.5 37.7333 1114.23 37.4827C1113 36.3375 1112.1 34.9619 1111.34 33.3022C1111.27 32.7898 1111.27 32.1068 1111.16 31.4217C1110.98 30.3427 1111.56 29.4162 1112.49 28.818C1112.75 28.6532 1112.88 28.2908 1113.31 28.3293C1113.61 28.3562 1113.93 28.1976 1114.32 28.1002C1114.44 28.2046 1114.59 28.3425 1114.79 28.5165C1114.47 29.0512 1113.87 29.3888 1113.82 30.107C1114.53 30.3436 1114.85 29.5562 1115.56 29.4654C1115.65 29.5433 1115.81 29.6808 1115.95 29.8109C1115.7 30.1899 1115.53 30.445 1115.21 30.9151C1115.7 30.7611 1116.05 30.7586 1116.18 30.59C1116.5 30.1634 1117.02 29.9923 1117.33 29.5176C1117.61 29.0757 1118.07 28.7464 1118.55 28.4382C1119.22 28.0029 1119.76 27.377 1120.39 26.8709C1121.31 26.127 1122.18 25.3118 1123.21 24.6934C1123.62 24.4495 1123.92 24.0245 1124.26 23.6704C1124.56 23.3481 1125.05 23.2073 1125.15 22.7268H1126.67V23.7068C1126.63 23.7491 1126.48 23.8949 1126.3 24.0709C1126.5 24.0349 1126.71 24.0063 1126.9 23.9615C1127.1 23.916 1127.3 23.8547 1127.6 23.7714C1127.56 24.5008 1127.59 25.1466 1128.12 25.6171C1128.01 25.7666 1127.95 25.852 1127.82 26.0247C1127.98 26.1133 1128.17 26.2152 1128.51 26.4053C1128.16 26.5031 1128.03 26.5362 1127.87 26.5818C1127.93 26.7259 1128.02 26.8605 1128.05 27.0067C1128.08 27.1509 1128.05 27.3062 1128.05 27.4541C1127.63 28.029 1127.22 28.6039 1126.76 29.2351C1126.67 29.2447 1126.49 29.2641 1126.23 29.2927C1126.31 29.4021 1126.36 29.4704 1126.42 29.5591C1126.36 29.7206 1126.28 29.8999 1126.2 30.0996C1125.2 30.0515 1125.2 31.0759 1124.58 31.4747C1124.71 31.6458 1124.78 31.7307 1124.81 31.7696C1124.4 32.1789 1123.98 32.5914 1123.57 33.0077C1123.6 33.0383 1123.55 32.9899 1123.57 33.0106C1123.38 33.1957 1123.19 33.3871 1123 33.5789C1122.94 33.5304 1122.88 33.4824 1122.82 33.4339V34.0287C1122.68 33.9206 1122.61 33.8576 1122.44 33.7172C1122.48 33.9707 1122.5 34.1393 1122.54 34.3762C1122.25 34.7415 1121.91 35.181 1121.55 35.6573C1121.38 35.5364 1121.27 35.4531 1121.17 35.3794C1120.76 35.8549 1120.34 36.3424 1119.92 36.8345C1120.09 36.9153 1120.24 36.9894 1120.45 37.0975C1120.25 37.3547 1120.08 37.5759 1119.91 37.7834C1119.94 37.875 1119.94 37.9595 1119.98 38.0067C1120.67 38.7779 1121.48 39.4676 1122.02 40.3316C1122.63 41.3046 1123.38 42.309 1123.03 43.6336Z" fill="black"/>
<path fill-rule="evenodd" clip-rule="evenodd" d="M1138.7 27.3025C1138.77 27.2329 1138.82 27.1795 1138.88 27.1244C1138.84 27.0722 1138.81 27.0121 1138.76 26.9678C1138.46 26.7006 1138.09 26.4716 1137.86 26.2098C1137.62 25.9538 1137.36 25.7588 1137.13 25.5243C1136.82 25.2124 1136.47 24.7659 1136.45 24.3645C1136.42 23.6463 1136.38 22.926 1136.55 22.1734C1136.84 20.8741 1137.52 19.8903 1138.43 18.9928C1139.57 17.8533 1140.71 16.7101 1141.91 15.5098C1141.45 15.1175 1141.43 14.3769 1140.71 14.2328C1140.41 13.6434 1140.1 13.054 1139.8 12.4646C1139.52 11.9207 1139.57 11.3338 1139.57 10.7527C1139.58 10.3389 1139.58 9.92508 1139.58 9.5113C1139.96 9.02544 1140.34 8.53958 1140.71 8.06242H1142.59C1142.29 8.57727 1142.03 9.01757 1141.78 9.44999C1142.48 9.95532 1142.73 8.86059 1143.34 9.19443C1143.72 9.71674 1143.01 9.96277 1142.79 10.4681C1143.22 10.3641 1143.48 10.3032 1143.78 10.2291C1143.97 10.7659 1143.88 11.2356 1143.59 11.7401C1143.74 11.8002 1143.86 11.8474 1144.05 11.9182C1144.18 12.0582 1143.91 12.0785 1143.86 12.2848C1144.04 12.5623 1144.26 12.9003 1144.53 13.3182C1146.4 11.3624 1148.78 10.0514 1150.23 7.81763H1151.36C1151.27 8.19041 1151.2 8.51597 1151.09 8.96124C1151.41 8.85023 1151.65 8.76491 1151.98 8.64769V9.52414C1152.16 9.57177 1152.27 9.59828 1152.37 9.6252C1152.4 9.68857 1152.44 9.75029 1152.45 9.81615C1152.46 9.92715 1152.43 10.0448 1152.46 10.1537C1152.69 11.3267 1152.1 12.2574 1151.49 13.1364C1150.83 14.0874 1150.06 14.9643 1149.28 15.9422C1149.83 16.6086 1150.72 16.9325 1151.5 17.5547C1151.52 17.6574 1151.54 17.8305 1151.57 18.0298C1151.78 18.2886 1152.11 18.5392 1152.21 18.8606C1152.41 19.5652 1152.93 20.2213 1152.58 21.1309C1152.49 21.1698 1152.3 21.2622 1152.11 21.3442C1151.92 21.4258 1151.72 21.4962 1151.51 21.5811C1151.21 21.2771 1150.53 21.3736 1150.62 20.7817C1149.93 20.5825 1149.33 20.4069 1148.74 20.2366C1148.6 20.0026 1148.48 19.7905 1148.34 19.5507H1147.09C1147.06 19.4161 1147.04 19.3142 1147.01 19.1883C1146.55 18.8333 1146.16 19.2512 1145.89 19.3233C1145.52 19.7508 1145.24 20.078 1144.93 20.4388C1144.84 20.3708 1144.77 20.3161 1144.64 20.2221C1144.51 20.4106 1144.37 20.6135 1144.19 20.8608C1144.17 20.8306 1144.22 20.9039 1144.31 21.0124C1143.78 21.1437 1143.74 21.6698 1143.51 22.1026C1143.33 21.9912 1143.21 21.9179 1143.03 21.8056C1143 22.0003 1142.96 22.1908 1142.93 22.4161C1142.85 22.4373 1142.75 22.4646 1142.57 22.5139C1142.52 22.9716 1142.45 23.5291 1141.78 23.3771C1141.55 23.6724 1141.17 23.947 1141.19 24.1757C1141.27 24.8628 1140.69 25.1913 1140.54 25.7285C1140.46 26.4074 1140.47 26.407 1140.68 26.8605C1140.19 27.2524 1139.64 27.5162 1139 27.679C1138.92 27.5738 1138.82 27.457 1138.7 27.3025Z" fill="black"/>
<path fill-rule="evenodd" clip-rule="evenodd" d="M1072.64 14.5398C1072.36 14.5746 1072.19 14.5957 1071.98 14.6222C1072.11 14.7664 1072.18 14.848 1072.3 14.9793C1072.02 15.5008 1071.49 15.8135 1071.13 16.2695L1071.3 16.446C1071.02 16.6713 1070.73 16.8966 1070.48 17.0884C1070.35 17.4442 1070.64 17.8455 1070.16 18.0659C1070.58 18.348 1070.97 18.5998 1071.35 18.8608C1072.53 19.68 1073.8 20.3829 1074.78 21.4864C1075.34 22.118 1075.87 22.7286 1075.88 23.6357C1075.88 23.7885 1076.03 23.9393 1076.16 24.1634C1075.82 24.3792 1075.5 24.5809 1075.1 24.8339C1072.84 23.5131 1070.51 22.3359 1068.37 20.6108C1068.22 20.6981 1067.88 20.7719 1067.82 20.9438C1067.58 21.6247 1067.1 22.1027 1066.61 22.5902C1066.55 22.6499 1066.57 22.7911 1066.56 22.8955C1066.35 22.9187 1066.17 22.9377 1065.9 22.9676C1065.95 23.1461 1066 23.2977 1066.07 23.5632C1065.64 23.9273 1065.31 24.469 1065.14 25.1417C1065.04 25.5323 1064.67 25.8525 1064.33 26.3242V28.7788C1064.12 28.7925 1063.94 28.8037 1063.74 28.8165C1063.7 28.9387 1063.65 29.0696 1063.59 29.2266H1062.82C1062.69 28.8737 1062.57 28.5116 1062.42 28.0945C1062.21 28.1898 1061.99 28.2847 1061.73 28.3977C1061.68 28.2337 1061.64 28.1053 1061.6 27.9769C1061.53 27.9504 1061.46 27.8916 1061.41 27.9024C1060.93 27.9931 1060.6 27.5888 1060.54 27.3316C1060.3 26.2845 1059.62 25.249 1060.27 24.1248C1060.29 23.0115 1060.98 22.1619 1061.37 21.1935C1061.5 20.8775 1062.05 20.933 1061.9 20.3871C1061.84 20.1626 1062.25 19.8068 1062.45 19.5148C1062.63 19.2501 1062.8 18.9755 1063.01 18.734C1063.25 18.4503 1063.55 18.2125 1063.8 17.9276C1064 17.6898 1064.15 17.4127 1064.35 17.1211C1062.98 16.0902 1062.14 14.6255 1061.18 13.2599C1060.87 11.9386 1060.34 10.6554 1060.54 9.10839C1060.86 8.74347 1061.27 8.27626 1061.71 7.77466C1062.19 7.87407 1062.73 7.57418 1063.18 8.07827C1062.89 8.46845 1062.6 8.85572 1062.31 9.24714C1062.39 9.33164 1062.46 9.41117 1062.54 9.48904C1063.15 9.61578 1063.37 8.72359 1064.01 8.93028C1064.11 9.11501 1064.2 9.30016 1064.3 9.49235C1064.11 9.61868 1063.88 9.76365 1063.64 9.91525C1063.79 10.0602 1063.89 10.1667 1064 10.2731C1064.32 9.94217 1064.63 9.93803 1065.01 10.3908C1064.97 10.643 1065.17 11.0075 1064.79 11.3012C1064.95 11.3766 1065.1 11.4503 1065.32 11.5551C1065.14 11.7974 1064.98 12.0119 1064.82 12.2319C1064.97 12.2861 1065.1 12.3321 1065.37 12.4295C1065.12 12.4974 1065 12.5293 1064.79 12.5856C1064.82 12.7691 1064.77 13.0201 1064.88 13.1605C1065.31 13.7421 1065.79 14.29 1066.3 14.9118C1066.58 14.6591 1066.79 14.471 1067 14.276C1068.24 13.1237 1069.27 11.7419 1070.81 10.9259C1070.8 10.5013 1071.24 10.5312 1071.43 10.3038C1071.65 10.0466 1071.89 9.80963 1072.05 9.64353H1072.81C1072.46 10.1501 1071.88 10.4363 1072.07 11.1661C1072.56 10.8737 1073.04 10.5875 1073.62 10.2392C1073.57 10.5734 1073.53 10.831 1073.48 11.1239C1073.69 11.227 1073.99 11.3815 1074.32 11.5464C1074.24 11.7208 1074.16 11.8661 1074.08 12.0364C1074.2 12.0612 1074.3 12.0824 1074.41 12.1047C1074.42 12.1486 1074.46 12.2236 1074.44 12.2513C1074.17 12.6225 1073.8 12.9505 1073.63 13.3618C1073.41 13.8779 1072.92 14.1103 1072.64 14.5398Z" fill="black"/>
<path fill-rule="evenodd" clip-rule="evenodd" d="M1093.26 26.07C1094.16 24.9657 1094.92 24.0478 1095.66 23.1171C1096.37 22.2357 1096.97 21.2839 1097.52 20.3084C1097.45 20.2219 1097.38 20.1382 1097.27 19.9949C1097.46 19.7778 1097.65 19.5625 1097.85 19.3342H1098.59C1098.87 19.6126 1099.09 20.0098 1099.41 20.1113C1099.8 20.2347 1099.86 20.5458 1100.01 20.7781C1100.56 21.5829 1100.94 22.3997 1100.52 23.4485C1100.26 24.0934 1100 24.7387 1099.73 25.3807C1099.65 25.5742 1099.59 25.7767 1099.49 26.0712L1098.92 26.642V27.3527C1098.47 28.1617 1098.1 28.836 1097.7 29.5733C1098.26 29.9552 1098.78 30.3234 1099.31 30.6672C1100.37 31.3485 1101.24 32.1948 1101.76 33.3574C1101.88 33.6076 1101.93 33.8855 1102.04 34.2761C1102 34.3652 1101.91 34.5843 1101.8 34.8245C1101.56 34.933 1101.31 35.0503 1101.12 35.1414C1100.59 34.9579 1100.12 34.8208 1099.67 34.634C1099.22 34.4476 1098.79 34.2115 1098.35 33.9974C1098.28 33.3433 1097.53 33.6076 1097.22 33.1627C1096.97 32.7974 1096.41 32.6454 1095.92 32.3592C1094.45 33.8611 1093.15 35.5017 1091.96 37.2298C1091.87 37.3623 1091.9 37.5781 1091.87 37.755C1091.36 38.1543 1090.84 38.0934 1090.33 37.7306V37.3714C1089.66 36.9709 1089.03 36.5956 1088.35 36.1848C1088.02 35.8004 1088.19 35.1965 1087.97 34.7293C1087.73 34.209 1087.94 33.7054 1087.85 33.3226C1088.59 31.6571 1089.48 30.1983 1090.74 28.9396V28.1708C1090.01 27.6609 1089.56 26.8661 1089.1 26.0865C1088.94 25.8252 1088.92 25.4839 1088.85 25.1765C1088.7 24.5511 1088.49 23.9459 1088.51 23.2816C1088.54 22.0108 1089.27 21.1041 1090.48 20.6481C1091.24 20.3606 1091.99 20.5052 1092.81 20.4244C1092.37 21.341 1091.31 21.2627 1090.69 22.0311C1091.76 21.9839 1092.41 20.9765 1093.5 21.1687C1093.45 21.4255 1093.41 21.6827 1093.37 21.9536C1093.57 22.0241 1093.86 22.128 1094.14 22.2283V23.6626C1093.85 24.17 1093.53 24.6762 1093.27 25.2113C1093.19 25.3832 1093.26 25.6309 1093.26 26.07Z" fill="black"/>
<path fill-rule="evenodd" clip-rule="evenodd" d="M1112.35 12.0085C1111.93 12.5387 1111.54 13.0233 1111.11 13.5585V15.0078C1110.72 15.1672 1110.33 15.323 1109.89 15.4982C1109.38 14.997 1109.17 14.3322 1109 13.7038C1108.78 13.7863 1108.59 13.8588 1108.3 13.9664C1108.07 13.6388 1107.79 13.3493 1107.64 13.0047C1107.19 11.9721 1107.23 10.8695 1107.28 9.83189C1107.47 9.40444 1107.63 9.02254 1107.84 8.5458C1107.53 8.49899 1107.25 8.54249 1107.14 8.42651C1106.41 7.68882 1105.69 6.93828 1105.02 6.14592C1104.66 5.71846 1104.28 5.23509 1104.13 4.71444C1103.93 3.95231 1103.92 3.13385 1103.82 2.28266C1104.16 1.79929 1104.44 1.23308 1104.88 0.842899C1105.28 0.484201 1105.85 0.315207 1106.47 0C1106.62 0.156154 1106.76 0.307337 1106.9 0.461006C1106.82 0.540533 1105.71 1.60296 1105.71 1.60296C1105.79 1.6829 1105.87 1.76284 1105.99 1.88006C1106.49 1.51183 1107 1.03012 1107.82 1.34781C1107.61 1.62698 1107.46 1.84402 1107.18 2.2255C1107.55 2.07846 1107.76 1.99686 1108.06 1.88337C1108.19 2.09047 1108.34 2.3129 1108.52 2.58296C1108.21 2.89485 1107.96 3.13964 1107.67 3.43538C1107.86 3.47432 1107.96 3.49586 1108.13 3.53106C1107.88 3.96266 1108.02 4.55953 1107.36 4.77988C1108.02 5.5855 1108.75 6.02953 1109.48 6.52077C1111.98 4.45598 1114.41 2.43592 1116.88 0.388935H1117.97C1117.78 0.771657 1117.63 1.07692 1117.47 1.38592C1117.8 1.63568 1118.06 1.35527 1118.35 1.22935C1119.19 2.01095 1119.38 2.9868 1119.21 4.07533C1118.86 4.52183 1118.51 4.98036 1118.14 5.4484C1118.16 5.46994 1118.22 5.52047 1118.37 5.6584C1118.17 5.68408 1117.97 5.70893 1117.78 5.73379C1117.86 5.81497 1117.93 5.89657 1118.01 5.97817H1117.59C1116.81 7.43491 1115.5 8.42609 1114.55 9.75319C1115.86 10.4847 1117.33 11.0289 1118.72 11.8569C1118.76 12.0657 1118.81 12.3026 1118.86 12.5826C1119.03 12.402 1119.16 12.2666 1119.29 12.1361C1119.84 12.2115 1119.83 12.8543 1120.3 13.0896C1120.71 13.2959 1120.95 13.8434 1121.27 14.2452V15.5864C1121.16 15.6949 1121.06 15.8014 1120.91 15.9505C1119.75 15.8262 1118.78 15.1635 1117.72 14.6275C1117.7 14.647 1117.62 14.7182 1117.59 14.7493C1116.85 14.5662 1116.41 13.7709 1115.55 13.8898C1115.15 13.3775 1114.5 13.3377 1113.99 13.0357C1113.47 12.7309 1112.97 12.3999 1112.35 12.0085Z" fill="black"/>
<path fill-rule="evenodd" clip-rule="evenodd" d="M1145.24 30.0558C1145.48 30.1875 1145.66 30.2911 1145.93 30.4431C1145.87 30.8109 1145.81 31.1816 1145.73 31.6381C1145.92 31.9669 1146.08 32.4677 1146.65 32.6698C1146.91 32.3111 1147.07 31.9007 1147.56 31.7002C1147.91 31.559 1148.12 31.064 1148.38 30.7256C1148.67 30.3532 1149.08 30.0989 1149.31 29.6453C1149.51 29.2639 1149.92 29.0029 1150.19 28.6475C1150.46 28.2801 1150.66 27.8639 1150.9 27.4695H1152.17C1152.24 27.8266 1152.35 28.1795 1151.93 28.5481C1152.29 28.5647 1152.57 28.5775 1152.83 28.5891C1152.94 29.116 1153.05 29.5932 1153.15 30.0595C1152.96 30.1312 1152.83 30.1817 1152.68 30.2414C1152.7 30.3449 1152.7 30.453 1152.73 30.545C1153.05 31.3224 1153 31.5892 1152.39 32.1894C1152.14 32.4395 1152.03 32.8289 1152.14 33.072C1152.3 33.4539 1151.81 33.3069 1152.04 33.6594C1151.8 33.4593 1151.72 33.3964 1151.59 33.2878V33.917C1151.35 33.963 1151.15 34.0023 1150.9 34.0491V34.6667C1150.61 34.9678 1150.41 35.1807 1150.24 35.358C1150.63 35.7436 1150.99 36.099 1151.3 36.3952V37.2459C1151.54 37.4895 1151.79 37.7442 1152.06 38.006C1151.97 38.1501 1151.92 38.2408 1151.83 38.4003C1151.95 38.6406 1152.1 38.9363 1152.28 39.3178C1152.07 39.7726 1151.82 40.275 1151.6 40.7522H1150.65C1149.56 40.1246 1148.49 39.5153 1147.43 38.9081C1147.25 39.1985 1147.1 39.4296 1146.97 39.6255C1146.77 39.5303 1146.62 39.4565 1146.36 39.3302V40.3814C1146.02 40.2535 1145.78 40.164 1145.33 39.9966C1145.52 40.2501 1145.57 40.3193 1145.66 40.4527C1145.46 40.6474 1145.24 40.8532 1144.89 41.1788C1144.82 40.7584 1144.78 40.4949 1144.73 40.205C1144.89 40.1503 1145.02 40.106 1145.18 40.0493C1145.2 39.9643 1145.22 39.8616 1145.24 39.7361C1145.1 39.6864 1144.97 39.6417 1144.83 39.5961C1144.88 39.3965 1144.93 39.1952 1145.02 38.8539C1144.81 39.0456 1144.73 39.1198 1144.68 39.1637C1144.2 39.0734 1143.74 38.9885 1143.26 38.899C1143.19 38.7574 1143.09 38.5726 1142.98 38.3564C1143.07 38.0259 1143.16 37.6506 1143.26 37.2679C1143.48 37.3043 1143.76 37.3511 1144.04 37.3975C1144.05 37.3561 1144.07 37.3147 1144.08 37.2729C1143.78 37.1258 1143.49 36.9788 1143.23 36.8491C1143.39 36.5368 1143.54 36.2258 1143.69 35.9019C1142.95 34.6398 1142.14 33.4485 1141.68 32.0775C1141.41 31.1332 1141.73 30.2 1141.87 29.2705C1141.97 28.5477 1142.57 28.0366 1143.23 27.6708C1143.32 27.6187 1143.41 27.5586 1143.56 27.4658H1144.68C1144.86 27.6431 1145.02 27.803 1145.13 27.9152C1144.91 28.1364 1144.68 28.3609 1144.55 28.4939V29.1889C1144.8 29.1243 1145.04 29.0626 1145.31 28.9917C1145.45 29.1255 1145.58 29.2485 1145.77 29.4188C1145.58 29.6524 1145.42 29.845 1145.24 30.0558Z" fill="black"/>
<path fill-rule="evenodd" clip-rule="evenodd" d="M1077.31 41.6577C1077.44 41.7853 1077.55 41.8917 1077.7 42.0425C1077 42.6344 1076.32 43.2225 1075.63 43.8111C1075.64 43.8509 1075.66 43.8906 1075.67 43.93C1075.82 43.8873 1076 43.8836 1076.11 43.7941C1076.3 43.6276 1076.46 43.4118 1076.73 43.358C1077.22 43.0859 1077.7 42.8133 1078.17 42.5482C1078.58 42.8792 1078.28 43.1405 1078.1 43.5419C1078.37 43.4404 1078.54 43.3745 1078.73 43.3033C1078.81 43.3849 1078.92 43.4914 1079.03 43.5982C1079.03 44.0493 1079.03 44.5008 1079.03 44.9576C1078.89 45.086 1078.76 45.2177 1078.62 45.3561C1078.64 45.4083 1078.64 45.4803 1078.68 45.5085C1078.94 45.7011 1079.2 45.8962 1079.47 46.0677C1079.76 46.2516 1080.17 46.3046 1080.18 46.7756C1080.18 46.8298 1080.27 46.8911 1080.33 46.9338C1080.56 47.0974 1080.84 47.2212 1081.02 47.4238C1081.21 47.6255 1081.32 47.9034 1081.51 48.2298C1081.51 48.4208 1081.51 48.7219 1081.51 49.0226C1081.32 49.209 1081.14 49.3954 1080.98 49.5511C1079.56 49.0421 1078.15 48.5392 1076.74 48.0364C1076.43 48.2033 1076.09 48.3827 1075.76 48.562C1075.74 48.5392 1075.73 48.5164 1075.71 48.4937C1075.42 48.7861 1075.13 49.0789 1074.75 49.453C1074.75 49.542 1074.74 49.7168 1074.72 49.9396C1074.13 50.51 1073.51 51.1077 1073.01 51.5898C1072.76 52.3698 1072.89 53.1708 1071.85 53.3353C1071.63 52.9915 1070.86 52.9364 1071.04 52.1349C1070.82 52.0732 1070.56 51.9966 1070.27 51.9137C1070.21 51.9572 1070.09 52.0351 1070 52.0956C1069.71 51.7882 1069.46 51.519 1069.09 51.1284C1069.01 50.4238 1068.9 49.5221 1068.79 48.5732C1069.73 47.5588 1070.65 46.5593 1071.63 45.4986C1071.25 45.2583 1070.85 45.0574 1070.51 44.7861C1070.16 44.5053 1069.87 44.1557 1069.54 43.8273C1069.63 43.5344 1069.72 43.2358 1069.82 42.9131C1069.64 42.8502 1069.51 42.805 1069.34 42.7487V41.9857C1069.41 41.9224 1069.49 41.8428 1069.58 41.7501C1069.9 41.6859 1070.24 41.6183 1070.66 41.5347C1071.78 42.1609 1073 42.8456 1074.18 43.5112C1075.37 43.0585 1076.15 42.0143 1077.31 41.6577Z" fill="black"/>
</svg>
